<?xml version="1.0" encoding="UTF-8"?>
<svg id="_レイヤー_2" data-name="レイヤー 2" xmlns="http://www.w3.org/2000/svg" viewBox="0 0 256 129">
  <defs>
    <style>
      .cls-1, .cls-2 {
        fill: none;
      }

      .cls-3 {
        fill: #eaf0f4;
      }

      .cls-3, .cls-2 {
        stroke: #0082e9;
        stroke-linecap: round;
        stroke-linejoin: round;
        stroke-width: 4px;
      }
    </style>
  </defs>
  <g id="Content">
    <g>
      <polygon class="cls-2" points="168 101 71 101 81 32.5 178 32.5 168 101"/>
      <polyline class="cls-2" points="178.5 32.5 186.5 96.5 168.5 96.5"/>
      <path class="cls-2" d="M101.5,40.5c-4.42,0-8-3.58-8-8s3.58-8,8-8,8,3.58,8,8"/>
      <path class="cls-2" d="M145.5,40.5c-4.42,0-8-3.58-8-8s3.58-8,8-8,8,3.58,8,8"/>
    </g>
    <rect class="cls-1" y="1" width="256" height="128"/>
    <g>
      <circle class="cls-3" cx="194.01" cy="29.16" r="27.16" transform="translate(123.95 212.41) rotate(-77.63)"/>
      <line class="cls-2" x1="155.15" y1="54.04" x2="171.13" y2="43.81"/>
    </g>
    <g>
      <circle class="cls-3" cx="53.05" cy="50.71" r="27.16" transform="translate(-7.13 8.7) rotate(-8.79)"/>
      <line class="cls-2" x1="90.28" y1="77.97" x2="74.96" y2="66.75"/>
    </g>
    <polyline class="cls-2" points="101.5 64 86 64 88.1 49.64"/>
    <polyline class="cls-2" points="127 64 111.5 64 113.6 49.64"/>
    <polyline class="cls-2" points="152.5 64 137 64 139.1 49.64"/>
    <polyline class="cls-2" points="101 88 85.5 88 87.6 73.64"/>
    <polyline class="cls-2" points="126.5 88 111 88 113.1 73.64"/>
    <polyline class="cls-2" points="152 88 136.5 88 138.6 73.64"/>
    <rect class="cls-3" x="182" y="21" width="28" height="18"/>
    <polyline class="cls-3" points="182 25 196 34 210 25"/>
    <rect class="cls-3" x="39" y="42" width="28" height="18"/>
    <polyline class="cls-3" points="39 46 53 55 67 46"/>
  </g>
</svg>