<svg id="_レイヤー_2" data-name="レイヤー 2" xmlns="http://www.w3.org/2000/svg" viewBox="0 0 257 128"><defs><style>.cls-2,.cls-3{fill:#0082e9}.cls-5{fill:#eaf0f4;stroke-width:4px}.cls-3,.cls-5{stroke:#0082e9}.cls-5{stroke-linecap:round;stroke-linejoin:round}.cls-3{stroke-miterlimit:10}</style></defs><g id="Content"><path class="cls-2" d="M135.94 77.96c.66 3.7 1.76 4.33 2.46 4.73.17.1.34.2.49.3.6.39.87 1.13.66 1.81-.2.68-.83 1.15-1.55 1.15h-16.95c-.71 0-1.34-.47-1.55-1.15-.2-.68.07-1.42.66-1.81.15-.1.32-.2.49-.3.69-.4 1.78-1.02 2.44-4.66m3.28-.04c-.34 2.15-.82 3.64-1.39 4.73h9.06c-.53-1-.98-2.96-1.31-4.85"/><path class="cls-2" d="M138 91.25h-16.95c-.89 0-1.61-.72-1.61-1.61v-5.3c0-.89.72-1.61 1.61-1.61H138c.89 0 1.61.72 1.61 1.61v5.3c0 .89-.72 1.61-1.61 1.61Zm-15.33-3.23h13.72v-2.07h-13.72v2.07ZM151.14 78.05h-43.23c-2.34 0-4.24-1.9-4.24-4.24V41.24c0-2.34 1.9-4.24 4.24-4.24h43.23c2.34 0 4.24 1.9 4.24 4.24v32.57c0 2.34-1.9 4.24-4.24 4.24Zm-43.23-37.83c-.55 0-1.01.46-1.01 1.01V73.8c0 .55.46 1.01 1.01 1.01h43.23c.55 0 1.01-.46 1.01-1.01V41.24c0-.55-.46-1.01-1.01-1.01h-43.23Z"/><path class="cls-2" d="M148.62 72.35h-38.17c-.89 0-1.61-.72-1.61-1.61V43.77c0-.89.72-1.61 1.61-1.61h38.17c.89 0 1.61.72 1.61 1.61v26.97c0 .89-.72 1.61-1.61 1.61Zm-36.56-3.23h34.95V45.38h-34.95v23.74Z"/><path style="fill:none" d="M0 0h257v128H0z"/><path class="cls-3" d="m157.45 21.39-6.68 5.49M150.73 28.11c.29 0 .58-.08.82-.28l6.68-5.49a1.237 1.237 0 0 0-1.57-1.91l-6.68 5.49a1.237 1.237 0 0 0 .75 2.19ZM141.25 10.37l-2.66 8.23M138.56 19.83c.53.01 1.04-.32 1.21-.85l2.65-8.23c.21-.65-.15-1.35-.8-1.56-.65-.21-1.35.15-1.55.8l-2.65 8.23a1.242 1.242 0 0 0 1.15 1.62ZM121.66 9.85l2.22 8.36M123.84 19.44c.12 0 .23 0 .35-.04.66-.18 1.05-.85.88-1.51l-2.22-8.35c-.17-.66-.85-1.05-1.51-.88-.66.18-1.05.85-.88 1.51l2.22 8.35c.14.54.63.9 1.16.92ZM104.9 20.01l6.39 5.83M111.25 27.07c.35 0 .69-.13.94-.4.46-.5.42-1.29-.08-1.75l-6.38-5.83c-.5-.46-1.29-.42-1.74.08-.46.5-.42 1.29.08 1.75l6.38 5.83c.23.21.51.32.8.32Z"/><circle class="cls-5" cx="207" cy="67" r="13"/><circle class="cls-5" cx="67" cy="63" r="13"/><path class="cls-5" d="M214.16 80.67C227 91 226 122 226 122M207 80l-7.66 6h-12.51l-4.87-10c-2.95-6-10.95-4-7.83 3l7.83 15h16.39l-4.34 27.01M65.26 76.67C52.42 87 53.42 118 53.42 118M72.43 76l7.66 6H92.6l4.87-10c2.95-6 10.95-4 7.83 3l-7.83 15H81.08l4.34 27.01"/><circle cx="163" cy="46" r="14" style="fill:#eaf0f4"/><path class="cls-2" d="M163 35c6.07 0 11 4.93 11 11s-4.93 11-11 11-11-4.93-11-11 4.93-11 11-11m0-6c-9.39 0-17 7.61-17 17s7.61 17 17 17 17-7.61 17-17-7.61-17-17-17Z"/><path style="stroke-width:6px;stroke-linecap:round;stroke-linejoin:round;stroke:#0082e9;fill:#eaf0f4" d="m168 59 5.63 11.67"/><path class="cls-5" transform="rotate(-17.18 49.594 99.984)" d="M37.61 84h24v32h-24z"/><path class="cls-5" d="m43.33 92.52 7.24-2.24M38.54 104.85C44.95 103.73 49.79 115 40 115c-5.54 0-8-9-1.46-10.15Z"/></g></svg>