<svg id="_レイヤー_2" data-name="レイヤー 2" xmlns="http://www.w3.org/2000/svg" viewBox="0 0 257 138.73"><defs><style>.cls-2{fill:none}.cls-3{fill:#eaf0f4}.cls-2{stroke-linecap:round;stroke-linejoin:round;stroke-width:4px;stroke:#0082e9}.cls-4{stroke:#0082e9;fill:#0082e9;stroke-miterlimit:10}</style></defs><g id="Content"><path class="cls-4" d="m76.08 22.12 3.74 7.8M80.65 30.83c-.09.08-.18.14-.29.2-.62.29-1.35.04-1.65-.58l-3.74-7.79a1.24 1.24 0 0 1 .58-1.65c.62-.29 1.35-.04 1.65.58l3.74 7.79c.24.51.11 1.09-.29 1.45ZM95.42 18.96l-1.07 8.58M95.18 28.46c-.26.23-.61.35-.98.31-.68-.08-1.16-.7-1.07-1.38l1.07-8.58c.08-.68.7-1.16 1.38-1.07.68.08 1.16.7 1.07 1.38l-1.07 8.58c-.04.31-.19.57-.4.76ZM122.6 90.17h-13.54L96.58 77.69c-.48-.48-1.26-.48-1.75 0-.48.48-.48 1.26 0 1.75l12.84 12.84c.06.06.12.11.19.16a.3.3 0 0 0 .08.04c.04.02.09.05.13.07.04.02.08.03.12.04.04.01.07.03.11.03.08.02.16.02.24.02h14.05c1.62 0 2.93 1.32 2.93 2.93s-1.32 2.93-2.93 2.93H105.6L90.68 83.58c-.48-.48-1.26-.48-1.75 0-.48.48-.48 1.26 0 1.75l15.28 15.28c.24.24.56.36.87.36h17.5c2.98 0 5.4-2.42 5.4-5.4s-2.42-5.4-5.4-5.4Z"/><circle class="cls-4" cx="96.65" cy="59.37" r="9.26"/><path class="cls-4" d="M130.29 62.97a5.402 5.402 0 0 0-7.64 0l-9.57 9.57H101.13c.44.81.86 1.63 1.25 2.47h11.2c.08 0 .16 0 .25-.02.03 0 .06-.02.09-.03.05-.01.1-.02.14-.04.04-.02.07-.04.11-.06.03-.02.07-.03.1-.05.07-.05.13-.1.19-.15l9.93-9.93c1.14-1.14 3-1.14 4.15 0 1.14 1.14 1.14 3 0 4.15l-12.01 12.01h-9.85a.605.605 0 0 0-.19 0h-.33c-.68 0-1.23.55-1.23 1.23 0 .08 0 .16.02.24v.01c.04.19.12.36.23.5 0 .03.01.05.02.08l2.3 4.76c.33.68 1.19.92 1.83.47.5-.35.63-1.05.37-1.6l-1.56-3.22h8.89c.34 0 .65-.14.87-.36 0 0 .01-.02.02-.02 0 0 .02-.01.02-.02l12.33-12.33a5.402 5.402 0 0 0 0-7.64ZM163.51 52.46c-.19.43-.05.94.33 1.22.81.6 1.3 1.52 1.3 2.51v35.5c0 1.06-.53 2.01-1.46 2.62-.8.52-1.76.71-2.69.53-.46-.09-.93.12-1.12.55l-.04.1c-.25.56.09 1.21.69 1.34.39.08.78.12 1.18.12 1.09 0 2.17-.31 3.11-.93 1.5-.98 2.39-2.6 2.39-4.33V56.2c0-1.65-.81-3.18-2.14-4.16-.52-.38-1.27-.16-1.53.43ZM137.53 92.73v5.19l9.01 3.93c.06.02.09 0 .09 0l-.02-5.15-9.09-3.96Z"/><path class="cls-4" d="m168.68 47.93-38.51-16.8a6.974 6.974 0 0 0-6.64.55c-1.84 1.2-2.94 3.2-2.94 5.33v23.75c0 .98 1.14 1.5 1.89.87l.08-.07c.35-.3.55-.74.55-1.2V37c0-1.3.66-2.48 1.8-3.23a4.5 4.5 0 0 1 2.45-.73c.61 0 1.23.13 1.82.38l38.51 16.8c1.49.65 2.45 2.05 2.45 3.58v43.69c0 1.3-.66 2.48-1.8 3.23-1.27.83-2.86.96-4.26.35l-38.51-16.8c-1.49-.65-2.45-2.05-2.45-3.58 0 0-.16-.29-.5-.45-.51-.24-1.16.39-1.16.39-.55.47-.78 1.23-.56 1.92.55 1.76 1.87 3.25 3.67 4.03l10.47 4.57v6.8c0 .97.59 1.86 1.51 2.26l9.02 3.93c.34.15.69.22 1.05.22.5 0 .99-.14 1.42-.42.7-.46 1.12-1.23 1.12-2.05v-4.57l13.92 6.07a6.996 6.996 0 0 0 6.64-.55c1.84-1.2 2.94-3.2 2.94-5.33V53.82c0-2.53-1.55-4.83-3.96-5.88Zm-22.14 53.92-9.01-3.93v-5.19l9.09 3.96.02 5.15s-.03.03-.09 0ZM195.71 114.67c-.3-.59-1.04-.84-1.68-.56l-34.27 15.29-65.54-31.33c-.62-.3-1.38-.06-1.69.52-.31.58-.07 1.3.55 1.59l66.09 31.59s.1.03.15.05c.03.01.07.03.1.03.11.03.21.04.32.04.1 0 .21-.02.31-.04.03 0 .06-.02.09-.03.05-.01.09-.02.14-.04l34.83-15.54c.63-.28.9-.99.6-1.58Z"/><path class="cls-4" d="m103.99 117.77-17.44-3.99h-.05c-1.88-.37-3.65-1.81-4.75-3.85-.91-1.69-1.43-3.81-1.64-6.66-.44-6.05.55-12.8 3.02-20.64 1.73-5.5 3.74-10.15 6.09-14.2A11.69 11.69 0 0 0 100 70.6c.4.64.77 1.29 1.12 1.94h2.82c-.5-.99-1.04-1.96-1.62-2.92 3.61-2 6.06-5.85 6.06-10.26 0-6.47-5.26-11.73-11.73-11.73s-11.73 5.26-11.73 11.73c0 2.73.94 5.24 2.51 7.23-2.6 4.34-4.79 9.34-6.66 15.29-2.57 8.14-3.59 15.2-3.13 21.56.15 2.02.51 5.01 1.93 7.65 1.42 2.63 3.76 4.51 6.3 5.07.04.01.07.03.11.04l17.44 3.99c.11.03.23.04.34.03.55-.02 1.04-.4 1.17-.96.16-.67-.26-1.33-.94-1.49ZM87.4 59.37c0-5.11 4.15-9.26 9.26-9.26s9.26 4.15 9.26 9.26-4.15 9.26-9.26 9.26-9.26-4.15-9.26-9.26Z"/><circle class="cls-3" cx="97" cy="59.73" r="9"/><path style="fill:none" d="M0 10.73h257v128H0z"/><path class="cls-3" d="M137.53 92.73v5.18l9.02 3.94.07-5.16-9.09-3.96z"/><path class="cls-2" d="M181.71 44.61v-3.55c.08-19.56 7.8-18.67 14.92-18.67s14.84-.89 14.92 18.67v3.55"/><circle class="cls-2" cx="196.63" cy="14.74" r="6.98"/><path class="cls-2" d="M205.63 34.2v10.41M188.16 34.2v10.41"/><circle class="cls-2" cx="196.83" cy="29.16" r="27.16" transform="rotate(-77.63 196.817 29.171)"/><path class="cls-2" d="m157.97 54.04 15.99-10.23"/></g></svg>