<svg id="_レイヤー_2" data-name="レイヤー 2" xmlns="http://www.w3.org/2000/svg" viewBox="0 0 701.5 160.37"><defs><style>.cls-2{font-family:GothicMB101Pro-Bold,&apos;GothicMB101Pro Bold-83pv-RKSJ-H&apos;;font-weight:700}.cls-2,.cls-3{fill:#fff}.cls-5{fill:#113e8b}.cls-2{font-size:38.47px}.cls-3{font-family:NotoSerifCJKjp-Black,&apos;NotoSerifCJKjp Black-83pv-RKSJ-H&apos;;font-size:53.86px;font-weight:800}</style></defs><g id="Copy"><path class="cls-5" d="M170.27 83.48 7.94 64.68C3.41 64.16 0 60.32 0 55.76V8.98C0 3.61 4.68-.56 10.01.06l162.32 18.81c4.53.52 7.94 4.36 7.94 8.92v46.78c0 5.37-4.68 9.54-10.01 8.92Z"/><text class="cls-2" transform="matrix(.95424 .10501 .08313 .99506 27.32 51.5)"><tspan x="0" y="0">即相談</tspan></text><text class="cls-3" transform="matrix(.95424 .10501 .08313 .99506 127.35 69.09)"><tspan x="0" y="0">！</tspan></text><path d="m339.95 130.65-162.32-18.81c-4.53-.52-7.94-4.36-7.94-8.92V56.15c0-5.37 4.68-9.54 10.01-8.92l162.32 18.81c4.53.52 7.94 4.36 7.94 8.92v46.78c0 5.37-4.68 9.54-10.01 8.92Z" style="fill:#113eb1"/><text class="cls-2" transform="matrix(.95424 .10501 .08313 .99506 197.01 98.67)"><tspan x="0" y="0">即回答</tspan></text><text class="cls-3" transform="matrix(.95424 .10501 .08313 .99506 297.04 116.25)"><tspan x="0" y="0">！</tspan></text><path class="cls-5" d="m509.24 133.25-162.32-18.81c-4.53-.52-7.94-4.36-7.94-8.92V58.74c0-5.37 4.68-9.54 10.01-8.92l162.32 18.81c4.53.52 7.94 4.36 7.94 8.92v46.78c0 5.37-4.68 9.54-10.01 8.92Z"/><text class="cls-2" transform="matrix(.95424 .10501 .08313 .99506 366.29 101.26)"><tspan x="0" y="0">即依頼</tspan></text><text class="cls-3" transform="matrix(.95424 .10501 .08313 .99506 466.32 118.85)"><tspan x="0" y="0">！</tspan></text><text transform="matrix(.95424 .10501 .08313 .99506 531.37 126.85)" style="fill:#fff;font-family:GothicMB101Pro-Bold,'GothicMB101Pro Bold-83pv-RKSJ-H';font-weight:700;font-size:44.22px"><tspan x="0" y="0">がデキる</tspan></text></g></svg>