<svg id="_レイヤー_2" data-name="レイヤー 2" xmlns="http://www.w3.org/2000/svg" viewBox="0 0 185.48 168"><defs><filter id="drop-shadow-1" filterUnits="userSpaceOnUse"><feOffset dx="1" dy="1"/><feGaussianBlur result="blur" stdDeviation="3"/><feFlood flood-color="#000" flood-opacity=".2"/><feComposite in2="blur" operator="in"/><feComposite in="SourceGraphic"/></filter><style>.cls-3{fill:#fff;font-family:NotoSansCJKjp-Bold-83pv-RKSJ-H,&apos;Noto Sans CJK JP&apos;;font-size:16px;font-weight:700}</style></defs><g id="Copy"><circle cx="100.48" cy="83" r="75" style="fill:#ffff40;filter:url(#drop-shadow-1)"/><path d="M8.24 76.27 11.47 62 0 53.73c11.46-4.19 21.79-7.61 31.56-10.45l6.69 23.05C29 69.02 19.18 72.27 8.24 76.27Z" style="fill:#003096"/><text transform="matrix(.96 0 0 1 58.41 104.98)" style="font-family:DINCondensed-Regular,'DIN Condensed';font-size:56px;fill:#113e8b"><tspan x="0" y="0">300</tspan></text><text transform="translate(77 133.98)" style="font-size:20px;fill:#113e8b;font-family:NotoSansCJKjp-Black-83pv-RKSJ-H,'Noto Sans CJK JP';font-weight:800;letter-spacing:.01em"><tspan x="0" y="0">以上</tspan></text><text transform="translate(128 103.98)" style="fill:#113e8b;font-family:NotoSansCJKjp-Black-83pv-RKSJ-H,'Noto Sans CJK JP';font-weight:800;letter-spacing:.01em;font-size:24px"><tspan x="0" y="0">件</tspan></text><path d="M21.55 62.12 13 38.74c56.39-20.63 92.09-24.78 155.7-26.76l.77 24.88c-63.61 1.98-95.53 6.09-147.93 25.26Z" style="fill:#113eb1"/><text class="cls-3" transform="matrix(.74455 -.2641 .3343 .94247 23.87 54.72)"><tspan x="0" y="0">W</tspan></text><text class="cls-3" transform="rotate(-18.29 175.514 -81.966) scale(.79 1)"><tspan x="0" y="0">o</tspan></text><text class="cls-3" transform="rotate(-17.34 180.034 -113.266) scale(.79 1)"><tspan x="0" y="0">r</tspan></text><text class="cls-3" transform="rotate(-16.28 187.498 -140.947) scale(.79 1)"><tspan x="0" y="0">d</tspan></text><text class="cls-3" transform="rotate(-14.9 198.166 -186.623) scale(.79 1)"><tspan x="0" y="0">P</tspan></text><text class="cls-3" transform="rotate(-13.68 208.768 -239.822) scale(.79 1)"><tspan x="0" y="0">r</tspan></text><text class="cls-3" transform="rotate(-12.55 221.692 -287.6) scale(.79 1)"><tspan x="0" y="0">e</tspan></text><text class="cls-3" transform="rotate(-11.34 237.582 -356.82) scale(.79 1)"><tspan x="0" y="0">s</tspan></text><text class="cls-3" transform="rotate(-10.27 254.862 -429.962) scale(.79 1)"><tspan x="0" y="0">s</tspan></text><text class="cls-3" transform="rotate(-7.88 312.084 -639.27)"><tspan x="0" y="0">制</tspan></text><text class="cls-3" transform="rotate(-5.87 390.528 -1018.388)"><tspan x="0" y="0">作</tspan></text><text class="cls-3" transform="rotate(-4.41 489.477 -1566.342)"><tspan x="0" y="0">実</tspan></text><text class="cls-3" transform="rotate(-3.44 598.137 -2275.58)"><tspan x="0" y="0">績</tspan></text></g></svg>