<svg id="_レイヤー_2" data-name="レイヤー 2" xmlns="http://www.w3.org/2000/svg" viewBox="0 0 185.48 168"><defs><filter id="drop-shadow-1" filterUnits="userSpaceOnUse"><feOffset dx="1" dy="1"/><feGaussianBlur result="blur" stdDeviation="3"/><feFlood flood-color="#000" flood-opacity=".2"/><feComposite in2="blur" operator="in"/><feComposite in="SourceGraphic"/></filter><style>.cls-3{fill:#fff;font-family:NotoSansCJKjp-Bold-83pv-RKSJ-H,&apos;Noto Sans CJK JP&apos;;font-size:16px;font-weight:700}</style></defs><g id="Copy"><circle cx="100.48" cy="83" r="75" style="fill:#ffff40;filter:url(#drop-shadow-1)"/><path d="M8.24 76.27 11.47 62 0 53.73c11.46-4.19 21.79-7.61 31.56-10.45l6.69 23.05C29 69.02 19.18 72.27 8.24 76.27Z" style="fill:#003096"/><path d="M21.55 62.12 13 38.74c56.39-20.63 92.09-24.78 155.7-26.76l.77 24.88c-63.61 1.98-95.53 6.09-147.93 25.26Z" style="fill:#113eb1"/><text class="cls-3" transform="rotate(-15.55 194.819 -150.176)"><tspan x="0" y="0">対</tspan></text><text class="cls-3" transform="rotate(-12.57 223.624 -266.918)"><tspan x="0" y="0">応</tspan></text><text class="cls-3" transform="rotate(-9.62 269.633 -454.354)"><tspan x="0" y="0">案</tspan></text><text class="cls-3" transform="rotate(-7.1 337.497 -757.046)"><tspan x="0" y="0">件</tspan></text><text class="cls-3" transform="rotate(-5.19 430.032 -1226.934)"><tspan x="0" y="0">数</tspan></text><text transform="matrix(.96 0 0 1 40.74 104.98)" style="font-family:DINCondensed-Regular,'DIN Condensed';font-size:56px;fill:#113e8b"><tspan x="0" y="0" style="letter-spacing:-.05em">5,</tspan><tspan x="29.57" y="0" style="letter-spacing:0">000</tspan></text><text transform="translate(75 133.98)" style="font-size:20px;fill:#113e8b;font-family:NotoSansCJKjp-Black-83pv-RKSJ-H,'Noto Sans CJK JP';font-weight:800;letter-spacing:.01em"><tspan x="0" y="0">以上</tspan></text><text transform="translate(142 103.98)" style="fill:#113e8b;font-family:NotoSansCJKjp-Black-83pv-RKSJ-H,'Noto Sans CJK JP';font-weight:800;letter-spacing:.01em;font-size:24px"><tspan x="0" y="0">件</tspan></text></g></svg>