<svg id="_レイヤー_2" data-name="レイヤー 2" xmlns="http://www.w3.org/2000/svg" viewBox="0 0 185.48 168"><defs><filter id="drop-shadow-1" filterUnits="userSpaceOnUse"><feOffset dx="1" dy="1"/><feGaussianBlur result="blur" stdDeviation="3"/><feFlood flood-color="#000" flood-opacity=".2"/><feComposite in2="blur" operator="in"/><feComposite in="SourceGraphic"/></filter><style>.cls-3{fill:#fff;font-family:NotoSansCJKjp-Bold-83pv-RKSJ-H,&apos;Noto Sans CJK JP&apos;;font-size:16px;font-weight:700}</style></defs><g id="Copy"><circle cx="100.48" cy="83" r="75" style="fill:#ffff40;filter:url(#drop-shadow-1)"/><path d="M8.24 76.27 11.47 62 0 53.73c11.46-4.19 21.79-7.61 31.56-10.45l6.69 23.05C29 69.02 19.18 72.27 8.24 76.27Z" style="fill:#003096"/><path d="M21.55 62.12 13 38.74c56.39-20.63 92.09-24.78 155.7-26.76l.77 24.88c-63.61 1.98-95.53 6.09-147.93 25.26Z" style="fill:#113eb1"/><text class="cls-3" transform="rotate(-14.08 207.426 -202.109)"><tspan x="0" y="0">営</tspan></text><text class="cls-3" transform="rotate(-11.06 244.213 -349.381)"><tspan x="0" y="0">業</tspan></text><text class="cls-3" transform="rotate(-8.28 300.864 -588.802)"><tspan x="0" y="0">年</tspan></text><text class="cls-3" transform="rotate(-6.06 381.028 -969.034)"><tspan x="0" y="0">数</tspan></text><text transform="matrix(.96 0 0 1 64.34 104.98)" style="font-family:DINCondensed-Regular,'DIN Condensed';font-size:56px;letter-spacing:0;fill:#113e8b"><tspan x="0" y="0">16</tspan></text><text transform="translate(111 103.98)" style="fill:#113e8b;font-family:NotoSansCJKjp-Black-83pv-RKSJ-H,'Noto Sans CJK JP';font-size:24px;font-weight:800;letter-spacing:.01em"><tspan x="0" y="0">年</tspan></text></g></svg>