<svg data-name="レイヤー 2" xmlns="http://www.w3.org/2000/svg" viewBox="0 0 115.53 31.31"><path d="M5.07 31.31c-.94 0-1.82-.12-2.61-.35-.71-.21-1.38-.52-2-.94v-5.37c.53.43 1.05.76 1.56 1.01.75.37 1.53.56 2.32.56 1.09 0 1.97-.32 2.62-.96.64-.63.97-1.5.97-2.57 0-1.3-.82-2.71-2.43-4.17-.42-.38-.74-.68-.94-.89-1.74-1.68-2.95-3.2-3.59-4.52-.64-1.3-.96-2.8-.96-4.46-.01-2.6.67-4.72 2.02-6.3C3.37.77 5.08 0 7.26 0c.77 0 1.54.12 2.28.36.68.22 1.43.55 2.21 1.01v4.62c-.75-.37-1.36-.64-1.83-.81-.62-.22-1.16-.33-1.65-.33-.95 0-1.74.33-2.36.98-.6.64-.91 1.49-.91 2.51 0 .87.22 1.69.65 2.45.42.73 1.36 1.77 2.87 3.18 1.91 1.76 3.14 3.23 3.68 4.37.53 1.14.8 2.53.8 4.15 0 2.73-.72 4.91-2.13 6.47-1.43 1.58-3.33 2.34-5.81 2.34Zm19.72-.39V5.37h4.44V.41h-13.9v4.96h4.45v25.55h5.02Zm22.47 0L40.97.41h-5.42l-6.6 30.52h4.94l.9-5.5h6.55l.98 5.5h4.95ZM38.57 6.46c.24 2.63.52 5.18.84 7.57.31 2.32.67 4.63 1.07 6.87l.09.49h-4.85l.07-.48c.36-2.48.7-4.92 1.03-7.33.32-2.41.64-4.79.93-7.13h.83Zm27.21 24.48-5.52-14.13.41-.14c1.44-.51 2.53-1.4 3.24-2.66.73-1.28 1.1-3.02 1.1-5.18 0-2.94-.71-5.1-2.11-6.41C61.49 1.1 59.15.43 55.96.43h-5.63v30.49h4.79V18.37l.81-.14 4.65 12.7h5.23ZM56.29 4.41c1.41 0 2.46.4 3.13 1.18.65.76.98 1.96.98 3.55s-.36 2.78-1.06 3.62c-.72.85-1.79 1.29-3.17 1.29-.08 0-.2 0-.37-.03-.13-.01-.23-.02-.29-.02h-.42l.02-9.49.69-.09h.48ZM85.6 30.88l-6.06-16.62L85.37.41h-5.14l-5.58 13.42-.8-.16V.41h-4.79v30.47h4.79V16.03l.81-.15 5.62 15h5.33Zm8.24.04v-19.8h-5.09v19.8h5.09Zm8.1 0c2.32 0 4.13-.17 5.39-.52 1.22-.34 2.34-.92 3.33-1.72 1.66-1.35 2.9-3.09 3.68-5.15.79-2.09 1.19-4.72 1.19-7.84 0-5.16-1.08-9.04-3.22-11.54-2.13-2.48-5.41-3.74-9.75-3.74h-4.57v30.51h3.95Zm.96-25.64h.79c2.32 0 4.07.9 5.21 2.68 1.1 1.72 1.65 4.35 1.65 7.81 0 3.24-.57 5.77-1.7 7.5-1.18 1.78-2.89 2.69-5.08 2.69h-.87V5.28Zm-9.09 2.95-.97-2.87 2.46-1.73h-3.03L91.29.75l-.97 2.88h-3.04l2.46 1.73-.97 2.86 2.51-1.76 2.52 1.76Z" style="fill:#fff"/></svg>