<svg id="_レイヤー_2" data-name="レイヤー 2" xmlns="http://www.w3.org/2000/svg" viewBox="0 0 734 180"><defs><style>.cls-1,.cls-2,.cls-3{fill:#0082e9}.cls-4,.cls-5{fill:#fff}.cls-2{font-family:NotoSansCJKjp-Bold-83pv-RKSJ-H,&apos;Noto Sans CJK JP&apos;;font-size:20px;font-weight:700;letter-spacing:.01em}.cls-3,.cls-5{letter-spacing:0}.cls-5{font-family:HiraMaruPro-W4-83pv-RKSJ-H,&apos;Hiragino Maru Gothic Pro&apos;;font-size:29.89px;stroke:#fff;stroke-miterlimit:10}.cls-3{font-family:NotoSansCJKjp-Black-83pv-RKSJ-H,&apos;Noto Sans CJK JP&apos;;font-size:64px;font-weight:800}.cls-6{fill:none;stroke:#0082e9;stroke-linecap:round;stroke-linejoin:round;stroke-width:4px}</style></defs><g id="Content"><circle class="cls-4" cx="90" cy="90" r="90"/><circle class="cls-4" cx="367" cy="90" r="90"/><circle class="cls-4" cx="644" cy="90" r="90"/><text class="cls-2" transform="translate(49.7 148.6)"><tspan x="0" y="0">ページ数</tspan></text><text class="cls-2" transform="translate(316.6 148.6)"><tspan x="0" y="0">ページ単価</tspan></text><text class="cls-2" transform="translate(603.7 148.6)"><tspan x="0" y="0">合計金額</tspan></text><path class="cls-6" d="M73.72 98.02 26.91 74.57c-2.23-1.29-2.23-4.51 0-5.79l62.54-36.14c2.07-1.2 4.62-1.2 6.68 0l46.81 23.45c2.23 1.29 2.23 4.51 0 5.79L80.4 98.02a6.648 6.648 0 0 1-6.68 0Z"/><path class="cls-6" d="m137.44 65.32 5.51 2.76c2.23 1.29 2.23 4.51 0 5.79l-62.54 36.14a6.648 6.648 0 0 1-6.68 0L26.92 86.56c-2.23-1.29-2.23-4.51 0-5.79l3.12-1.8"/><path class="cls-6" d="m137.44 76.32 5.51 2.76c2.23 1.29 2.23 4.51 0 5.79l-62.54 36.14a6.648 6.648 0 0 1-6.68 0L26.92 97.56c-2.23-1.29-2.23-4.51 0-5.79l3.12-1.8"/><circle class="cls-6" cx="126" cy="54" r="2"/><circle class="cls-6" cx="133" cy="58" r="2"/><path class="cls-6" d="m635.22 98.52-46.81-23.45c-2.23-1.29-2.23-4.51 0-5.79l62.54-36.14c2.07-1.2 4.62-1.2 6.68 0l46.81 23.45c2.23 1.29 2.23 4.51 0 5.79L641.9 98.52a6.648 6.648 0 0 1-6.68 0Z"/><path class="cls-6" d="m698.94 65.82 5.51 2.76c2.23 1.29 2.23 4.51 0 5.79l-62.54 36.14a6.648 6.648 0 0 1-6.68 0l-46.81-23.45c-2.23-1.29-2.23-4.51 0-5.79l3.12-1.8"/><path class="cls-6" d="m698.94 76.82 5.51 2.76c2.23 1.29 2.23 4.51 0 5.79l-62.54 36.14a6.648 6.648 0 0 1-6.68 0l-46.81-23.45c-2.23-1.29-2.23-4.51 0-5.79l3.12-1.8"/><circle class="cls-6" cx="687.5" cy="54.5" r="2"/><circle class="cls-6" cx="694.5" cy="58.5" r="2"/><path class="cls-6" d="m360.72 100.02-46.81-23.45c-2.23-1.29-2.23-4.51 0-5.79l62.54-36.14c2.07-1.2 4.62-1.2 6.68 0l46.81 23.45c2.23 1.29 2.23 4.51 0 5.79l-62.54 36.14a6.648 6.648 0 0 1-6.68 0Z"/><circle class="cls-6" cx="413" cy="56" r="2"/><circle class="cls-6" cx="420" cy="60" r="2"/><circle class="cls-1" cx="350.92" cy="55.92" r="18.92"/><circle class="cls-1" cx="622.92" cy="55.92" r="18.92"/><text class="cls-5" transform="matrix(1.03 0 0 1 334.52 68.35)"><tspan x="0" y="0">￥</tspan></text><text class="cls-5" transform="matrix(1.03 0 0 1 607.52 68.35)"><tspan x="0" y="0">￥</tspan></text><text class="cls-3" transform="matrix(1.03 0 0 1 207.25 111.42)"><tspan x="0" y="0">+</tspan></text><text class="cls-3" transform="matrix(1.03 0 0 1 484.25 111.42)"><tspan x="0" y="0">=</tspan></text></g></svg>