<svg id="_レイヤー_2" data-name="レイヤー 2" xmlns="http://www.w3.org/2000/svg" viewBox="0 0 200 115"><defs><style>.cls-2,.cls-3,.cls-4,.cls-5{fill:none}.cls-6{fill:#0af}.cls-7{fill:#fff}.cls-2{stroke-width:4px}.cls-2,.cls-3{stroke:#0082e9}.cls-2,.cls-3,.cls-5{stroke-linecap:round;stroke-linejoin:round}.cls-3{stroke-width:3.53px}.cls-4{stroke-miterlimit:10;stroke-width:.98px;stroke:#fff}.cls-5{stroke:#fff;stroke-width:8.52px}</style></defs><g id="Content"><path class="cls-2" d="M174 73c0 13.27-24.74 24.39-57.94 27.27M36.08 57.75C49.45 50.07 72.64 45 99 45s51.02 5.41 64.17 13.5"/><path class="cls-3" d="M81.94 100.27C48.74 97.39 24 86.27 24 73"/><path class="cls-2" d="M174 44v29"/><path class="cls-3" d="M24 73V44"/><path class="cls-5" d="M99.43 55.34c-5.74 0-10.41-4.67-10.41-10.41s4.67-10.41 10.41-10.41 10.41 4.67 10.41 10.41-4.67 10.41-10.41 10.41Zm0-17.54c-3.93 0-7.13 3.2-7.13 7.13s3.2 7.13 7.13 7.13 7.13-3.2 7.13-7.13-3.2-7.13-7.13-7.13Z"/><path class="cls-5" d="M99.43 35c5.47 0 9.92 4.45 9.92 9.92s-4.45 9.92-9.92 9.92-9.92-4.45-9.92-9.92S93.96 35 99.43 35m0 17.54c4.2 0 7.62-3.42 7.62-7.62s-3.42-7.62-7.62-7.62-7.62 3.42-7.62 7.62 3.42 7.62 7.62 7.62m0-18.52c-6.01 0-10.91 4.89-10.91 10.91s4.89 10.91 10.91 10.91 10.91-4.89 10.91-10.91-4.89-10.91-10.91-10.91h0Zm0 17.54c-3.66 0-6.64-2.98-6.64-6.64s2.98-6.64 6.64-6.64 6.64 2.98 6.64 6.64-2.98 6.64-6.64 6.64h0ZM114.43 88.19c-.91 0-1.64-.74-1.64-1.64V69.29c0-4.98-5.01-9.03-11.17-9.03h-4.36c-6.16 0-11.17 4.05-11.17 9.03v17.26c0 .91-.74 1.64-1.64 1.64s-1.64-.74-1.64-1.64V69.29c0-6.79 6.49-12.32 14.46-12.32h4.36c7.97 0 14.46 5.53 14.46 12.32v17.26c0 .91-.74 1.64-1.64 1.64Z"/><path class="cls-5" d="M101.61 57.46c7.7 0 13.96 5.31 13.96 11.83v17.26c0 .64-.52 1.15-1.15 1.15s-1.15-.52-1.15-1.15V69.29c0-5.25-5.23-9.52-11.66-9.52h-4.36c-6.43 0-11.66 4.27-11.66 9.52v17.26c0 .64-.52 1.15-1.15 1.15s-1.15-.52-1.15-1.15V69.29c0-6.52 6.26-11.83 13.97-11.83h4.36m0-.98h-4.36c-8.24 0-14.95 5.75-14.95 12.81v17.26c0 1.18.96 2.14 2.13 2.14s2.13-.96 2.13-2.14V69.29c0-4.71 4.79-8.54 10.68-8.54h4.36c5.89 0 10.68 3.83 10.68 8.54v17.26c0 1.18.96 2.14 2.13 2.14s2.13-.96 2.13-2.14V69.29c0-7.06-6.71-12.81-14.95-12.81h0Z"/><path class="cls-4" d="M99.43 55.34c-5.74 0-10.41-4.67-10.41-10.41s4.67-10.41 10.41-10.41 10.41 4.67 10.41 10.41-4.67 10.41-10.41 10.41Zm0-17.54c-3.93 0-7.13 3.2-7.13 7.13s3.2 7.13 7.13 7.13 7.13-3.2 7.13-7.13-3.2-7.13-7.13-7.13Z"/><path class="cls-4" d="M99.43 35c5.47 0 9.92 4.45 9.92 9.92s-4.45 9.92-9.92 9.92-9.92-4.45-9.92-9.92S93.96 35 99.43 35m0 17.54c4.2 0 7.62-3.42 7.62-7.62s-3.42-7.62-7.62-7.62-7.62 3.42-7.62 7.62 3.42 7.62 7.62 7.62m0-18.52c-6.01 0-10.91 4.89-10.91 10.91s4.89 10.91 10.91 10.91 10.91-4.89 10.91-10.91-4.89-10.91-10.91-10.91Zm0 17.54c-3.66 0-6.64-2.98-6.64-6.64s2.98-6.64 6.64-6.64 6.64 2.98 6.64 6.64-2.98 6.64-6.64 6.64ZM114.43 88.19c-.91 0-1.64-.74-1.64-1.64V69.29c0-4.98-5.01-9.03-11.17-9.03h-4.36c-6.16 0-11.17 4.05-11.17 9.03v17.26c0 .91-.74 1.64-1.64 1.64s-1.64-.74-1.64-1.64V69.29c0-6.79 6.49-12.32 14.46-12.32h4.36c7.97 0 14.46 5.53 14.46 12.32v17.26c0 .91-.74 1.64-1.64 1.64Z"/><path class="cls-4" d="M101.61 57.46c7.7 0 13.96 5.31 13.96 11.83v17.26c0 .64-.52 1.15-1.15 1.15s-1.15-.52-1.15-1.15V69.29c0-5.25-5.23-9.52-11.66-9.52h-4.36c-6.43 0-11.66 4.27-11.66 9.52v17.26c0 .64-.52 1.15-1.15 1.15s-1.15-.52-1.15-1.15V69.29c0-6.52 6.26-11.83 13.97-11.83h4.36m0-.98h-4.36c-8.24 0-14.95 5.75-14.95 12.81v17.26c0 1.18.96 2.14 2.13 2.14s2.13-.96 2.13-2.14V69.29c0-4.71 4.79-8.54 10.68-8.54h4.36c5.89 0 10.68 3.83 10.68 8.54v17.26c0 1.18.96 2.14 2.13 2.14s2.13-.96 2.13-2.14V69.29c0-7.06-6.71-12.81-14.95-12.81Z"/><path class="cls-7" d="M99.43 55.34c-5.74 0-10.41-4.67-10.41-10.41s4.67-10.41 10.41-10.41 10.41 4.67 10.41 10.41-4.67 10.41-10.41 10.41Zm0-17.54c-3.93 0-7.13 3.2-7.13 7.13s3.2 7.13 7.13 7.13 7.13-3.2 7.13-7.13-3.2-7.13-7.13-7.13Z"/><path class="cls-7" d="M99.43 35c5.47 0 9.92 4.45 9.92 9.92s-4.45 9.92-9.92 9.92-9.92-4.45-9.92-9.92S93.96 35 99.43 35m0 17.54c4.2 0 7.62-3.42 7.62-7.62s-3.42-7.62-7.62-7.62-7.62 3.42-7.62 7.62 3.42 7.62 7.62 7.62m0-18.52c-6.01 0-10.91 4.89-10.91 10.91s4.89 10.91 10.91 10.91 10.91-4.89 10.91-10.91-4.89-10.91-10.91-10.91Zm0 17.54c-3.66 0-6.64-2.98-6.64-6.64s2.98-6.64 6.64-6.64 6.64 2.98 6.64 6.64-2.98 6.64-6.64 6.64ZM114.43 88.19c-.91 0-1.64-.74-1.64-1.64V69.29c0-4.98-5.01-9.03-11.17-9.03h-4.36c-6.16 0-11.17 4.05-11.17 9.03v17.26c0 .91-.74 1.64-1.64 1.64s-1.64-.74-1.64-1.64V69.29c0-6.79 6.49-12.32 14.46-12.32h4.36c7.97 0 14.46 5.53 14.46 12.32v17.26c0 .91-.74 1.64-1.64 1.64Z"/><path class="cls-7" d="M101.61 57.46c7.7 0 13.96 5.31 13.96 11.83v17.26c0 .64-.52 1.15-1.15 1.15s-1.15-.52-1.15-1.15V69.29c0-5.25-5.23-9.52-11.66-9.52h-4.36c-6.43 0-11.66 4.27-11.66 9.52v17.26c0 .64-.52 1.15-1.15 1.15s-1.15-.52-1.15-1.15V69.29c0-6.52 6.26-11.83 13.97-11.83h4.36m0-.98h-4.36c-8.24 0-14.95 5.75-14.95 12.81v17.26c0 1.18.96 2.14 2.13 2.14s2.13-.96 2.13-2.14V69.29c0-4.71 4.79-8.54 10.68-8.54h4.36c5.89 0 10.68 3.83 10.68 8.54v17.26c0 1.18.96 2.14 2.13 2.14s2.13-.96 2.13-2.14V69.29c0-7.06-6.71-12.81-14.95-12.81Z"/><path class="cls-6" d="M99.43 55.34c-5.74 0-10.41-4.67-10.41-10.41s4.67-10.41 10.41-10.41 10.41 4.67 10.41 10.41-4.67 10.41-10.41 10.41Zm0-17.54c-3.93 0-7.13 3.2-7.13 7.13s3.2 7.13 7.13 7.13 7.13-3.2 7.13-7.13-3.2-7.13-7.13-7.13Z"/><path class="cls-6" d="M99.43 35c5.47 0 9.92 4.45 9.92 9.92s-4.45 9.92-9.92 9.92-9.92-4.45-9.92-9.92S93.96 35 99.43 35m0 17.54c4.2 0 7.62-3.42 7.62-7.62s-3.42-7.62-7.62-7.62-7.62 3.42-7.62 7.62 3.42 7.62 7.62 7.62m0-18.52c-6.01 0-10.91 4.89-10.91 10.91s4.89 10.91 10.91 10.91 10.91-4.89 10.91-10.91-4.89-10.91-10.91-10.91Zm0 17.54c-3.66 0-6.64-2.98-6.64-6.64s2.98-6.64 6.64-6.64 6.64 2.98 6.64 6.64-2.98 6.64-6.64 6.64ZM114.43 88.19c-.91 0-1.64-.74-1.64-1.64V69.29c0-4.98-5.01-9.03-11.17-9.03h-4.36c-6.16 0-11.17 4.05-11.17 9.03v17.26c0 .91-.74 1.64-1.64 1.64s-1.64-.74-1.64-1.64V69.29c0-6.79 6.49-12.32 14.46-12.32h4.36c7.97 0 14.46 5.53 14.46 12.32v17.26c0 .91-.74 1.64-1.64 1.64Z"/><path class="cls-6" d="M101.61 57.46c7.7 0 13.96 5.31 13.96 11.83v17.26c0 .64-.52 1.15-1.15 1.15s-1.15-.52-1.15-1.15V69.29c0-5.25-5.23-9.52-11.66-9.52h-4.36c-6.43 0-11.66 4.27-11.66 9.52v17.26c0 .64-.52 1.15-1.15 1.15s-1.15-.52-1.15-1.15V69.29c0-6.52 6.26-11.83 13.97-11.83h4.36m0-.98h-4.36c-8.24 0-14.95 5.75-14.95 12.81v17.26c0 1.18.96 2.14 2.13 2.14s2.13-.96 2.13-2.14V69.29c0-4.71 4.79-8.54 10.68-8.54h4.36c5.89 0 10.68 3.83 10.68 8.54v17.26c0 1.18.96 2.14 2.13 2.14s2.13-.96 2.13-2.14V69.29c0-7.06-6.71-12.81-14.95-12.81Z"/><path class="cls-3" d="M116.11 99V71.76M81.89 71.76V100"/><path class="cls-2" d="M81.93 71.27C48.73 68.38 24 57.27 24 44c0-15.46 33.58-28 75-28s75 12.54 75 28c0 13.27-24.73 24.39-57.93 27.27"/><circle class="cls-7" cx="99" cy="45" r="5"/><path id="_スライス_" data-name="&amp;lt;スライス&amp;gt;" style="fill:none" d="M0 0h200v115H0z"/></g></svg>