<svg id="_レイヤー_2" data-name="レイヤー 2" xmlns="http://www.w3.org/2000/svg" viewBox="0 0 200 115"><defs><style>.cls-2,.cls-3{fill:none}.cls-4{fill:#0af}.cls-5{fill:#0082e9}.cls-6{fill:#fff}.cls-2,.cls-3{stroke:#0082e9;stroke-linecap:round;stroke-linejoin:round;stroke-width:4px}.cls-3{stroke:#0af}</style></defs><g id="Content"><path class="cls-2" d="M172.5 90.26h-136v-87h136v87zM172.5 17.4h-136M55 73.41h27.74"/><path class="cls-3" d="M55 66.41h27.74M122 73.41h27.74"/><path class="cls-2" d="M122 66.41h27.74"/><circle class="cls-5" cx="142" cy="9.76" r="2.5"/><circle class="cls-5" cx="153" cy="9.76" r="2.5"/><circle class="cls-5" cx="164" cy="9.76" r="2.5"/><path class="cls-2" d="M55.5 31.26h100v25h-100z"/><path class="cls-4" d="M188.65 105.02c-1.29 0-2.52-.57-3.37-1.57l-15.3-17.86c-1.6.62-3.31.94-5.03.94-7.65 0-13.88-6.23-13.88-13.88 0-1.37.2-2.72.59-4.03a2.003 2.003 0 0 1 1.92-1.42 2 2 0 0 1 1.41.59l6.86 6.86c.16.16.35.18.45.18s.29-.02.45-.18l4.19-4.19c.25-.25.25-.66 0-.91l-6.86-6.86a2 2 0 0 1-.53-1.9c.17-.68.69-1.22 1.36-1.43 1.31-.39 2.66-.59 4.03-.59 7.65 0 13.88 6.23 13.88 13.88 0 1.72-.32 3.44-.94 5.03l17.86 15.3c.95.81 1.52 1.98 1.56 3.21.05 1.22-.43 2.43-1.31 3.31l-4.19 4.19c-.85.85-1.97 1.32-3.15 1.32Z"/><path class="cls-6" d="M164.94 60.78c6.56 0 11.88 5.32 11.88 11.88 0 2.01-.5 3.91-1.39 5.57l19 16.28c1.1.95 1.16 2.56.14 3.59l-4.19 4.19c-.49.49-1.11.73-1.73.73-.68 0-1.36-.29-1.85-.87l-16.28-19c-1.66.88-3.56 1.39-5.57 1.39-6.56 0-11.88-5.32-11.88-11.88 0-1.2.18-2.36.51-3.45l6.86 6.86a2.66 2.66 0 0 0 3.74 0l4.19-4.19a2.638 2.638 0 0 0 0-3.73l-6.86-6.86c1.09-.33 2.25-.51 3.45-.51m0-4c-1.56 0-3.11.23-4.61.68a3.991 3.991 0 0 0-2.72 2.85c-.34 1.36.06 2.81 1.05 3.8l5.9 5.9-2.26 2.26-5.9-5.9a3.997 3.997 0 0 0-6.65 1.67c-.45 1.5-.68 3.04-.68 4.61 0 8.76 7.12 15.88 15.88 15.88 1.49 0 2.97-.21 4.39-.62l14.43 16.83a6.444 6.444 0 0 0 4.89 2.27c1.71 0 3.33-.68 4.56-1.9l4.19-4.19a6.465 6.465 0 0 0 1.9-4.8 6.493 6.493 0 0 0-2.26-4.65l-16.84-14.43c.41-1.42.62-2.9.62-4.39 0-8.76-7.12-15.88-15.88-15.88Z"/><path class="cls-4" d="M29.46 82.52c-1.38 0-2.49-1.11-2.5-2.49-.02-3.06-2.5-5.56-5.53-5.56-.97 0-1.93.26-2.76.74-.39.22-.82.34-1.26.34-.21 0-.43-.03-.64-.08-.64-.17-1.19-.59-1.52-1.17l-4.15-7.19a2.5 2.5 0 0 1 .91-3.41c2.65-1.54 3.57-4.94 2.05-7.57a5.465 5.465 0 0 0-2.03-2.02c-.58-.33-1-.88-1.18-1.52-.18-.64-.09-1.33.25-1.91l4.15-7.19c.46-.8 1.3-1.25 2.17-1.25.42 0 .85.11 1.24.33.85.49 1.82.75 2.8.75 1.98 0 3.82-1.05 4.8-2.75.49-.85.75-1.81.74-2.79a2.511 2.511 0 0 1 2.5-2.52h8.3a2.5 2.5 0 0 1 2.5 2.5c0 3.08 2.48 5.58 5.53 5.58.98 0 1.94-.26 2.77-.75.39-.23.82-.34 1.26-.34.21 0 .43.03.64.08.64.17 1.19.59 1.53 1.17l4.15 7.19a2.5 2.5 0 0 1-.91 3.41c-2.66 1.54-3.59 4.94-2.06 7.58.49.84 1.18 1.54 2.02 2.02.58.33 1 .88 1.17 1.52.17.64.08 1.33-.25 1.9L52 74.31c-.46.8-1.3 1.25-2.17 1.25-.42 0-.85-.11-1.24-.33-.85-.49-1.81-.74-2.79-.74-1.98 0-3.82 1.05-4.8 2.75-.48.84-.74 1.79-.74 2.76 0 .66-.26 1.3-.73 1.77s-1.11.73-1.77.73h-8.3Zm4.17-29.67c-3.34 0-6.05 2.72-6.05 6.05s2.72 6.05 6.05 6.05 6.05-2.72 6.05-6.05-2.72-6.05-6.05-6.05Z"/><path class="cls-6" d="M37.78 37.78c0 4.46 3.6 8.08 8.03 8.08 1.47 0 2.85-.4 4.04-1.09L54 51.96c-3.86 2.24-5.19 7.15-2.98 10.99a7.923 7.923 0 0 0 2.95 2.94l-4.15 7.19a8.06 8.06 0 0 0-4.03-1.07c-2.78 0-5.48 1.43-6.96 4a7.988 7.988 0 0 0-1.07 4.01h-8.3c-.02-4.45-3.61-8.04-8.03-8.04-1.47 0-2.84.39-4.02 1.08l-4.15-7.19c3.84-2.24 5.17-7.15 2.96-10.98a7.903 7.903 0 0 0-2.96-2.95l4.15-7.19c1.28.73 2.67 1.08 4.04 1.08 2.78 0 5.48-1.43 6.96-4a7.93 7.93 0 0 0 1.07-4.05h8.3m-4.16 29.67c4.73 0 8.55-3.83 8.55-8.55s-3.83-8.55-8.55-8.55-8.55 3.83-8.55 8.55 3.83 8.55 8.55 8.55m4.16-34.67h-8.3a5.006 5.006 0 0 0-5 5.04c0 .54-.13 1.04-.4 1.51-.55.95-1.53 1.51-2.64 1.51-.55 0-1.07-.14-1.55-.42a4.988 4.988 0 0 0-6.82 1.83l-4.15 7.19a4.976 4.976 0 0 0-.49 3.81c.35 1.29 1.2 2.38 2.36 3.04.46.26.83.63 1.1 1.09.84 1.45.32 3.32-1.14 4.17a4.997 4.997 0 0 0-1.81 6.82l4.15 7.19a4.978 4.978 0 0 0 3.05 2.33 4.99 4.99 0 0 0 3.8-.51c.46-.27.96-.4 1.5-.4 1.66 0 3.02 1.38 3.03 3.07a4.995 4.995 0 0 0 5 4.97h8.3a5.003 5.003 0 0 0 5-5.01c0-.53.13-1.04.4-1.5.55-.95 1.53-1.51 2.64-1.51.54 0 1.06.14 1.54.41.78.45 1.64.66 2.48.66 1.73 0 3.41-.9 4.33-2.5l4.15-7.19c.67-1.15.84-2.52.5-3.81a5.016 5.016 0 0 0-2.35-3.04c-.46-.26-.83-.63-1.1-1.1-.83-1.45-.32-3.32 1.15-4.17 2.39-1.38 3.2-4.44 1.82-6.83l-4.15-7.19a5.005 5.005 0 0 0-3.05-2.33 4.964 4.964 0 0 0-3.81.52c-.46.27-.97.41-1.51.41-1.67 0-3.03-1.38-3.03-3.08 0-2.76-2.24-5-5-5Zm-4.16 29.67a3.55 3.55 0 1 1 .002-7.102 3.55 3.55 0 0 1-.002 7.102Z"/><path id="_スライス_" data-name="&amp;lt;スライス&amp;gt;" style="fill:none" d="M0 0h200v115H0z"/></g></svg>