<svg id="_レイヤー_2" data-name="レイヤー 2" xmlns="http://www.w3.org/2000/svg" viewBox="0 0 200 115"><defs><style>.cls-1{fill:none}.cls-2{fill:#0af}.cls-3{fill:#0082e9}.cls-4{stroke:#0082e9;stroke-linecap:round;stroke-linejoin:round;stroke-width:4px;fill:#fff}.cls-5{fill:#fff;font-family:NotoSansCJKjp-Bold-83pv-RKSJ-H,&apos;Noto Sans CJK JP&apos;;font-size:18px;font-weight:700;letter-spacing:.01em}</style></defs><g id="Content"><path class="cls-2" d="M163.99 36H117l-8.54 10-9.12-10H84c-3.87 0-7.01-3.14-7.01-7.01V14.01C76.99 10.14 80.13 7 84 7h79.99c3.87 0 7.01 3.14 7.01 7.01V29c0 3.87-3.14 7.01-7.01 7.01Z"/><text class="cls-5" transform="translate(100.3 25.95)"><tspan x="0" y="0">.com</tspan></text><path class="cls-2" d="M187.99 85H141l-8.54 10-9.12-10H108c-3.87 0-7.01-3.14-7.01-7.01V63c0-3.87 3.14-7.01 7.01-7.01h79.99c3.87 0 7.01 3.14 7.01 7.01v14.99c0 3.87-3.14 7.01-7.01 7.01Z"/><text class="cls-5" transform="translate(119.3 74.95)"><tspan x="0" y="0">.co.jp</tspan></text><rect class="cls-4" x="4.24" y="25.47" width="32.22" height="71.13" rx="1.59" ry="1.59"/><path class="cls-2" d="M23.62 82.36c0 1.92-1.56 3.47-3.47 3.47s-3.47-1.56-3.47-3.47 1.56-3.47 3.47-3.47 3.47 1.56 3.47 3.47Z"/><path class="cls-3" d="M10.86 32.55h4.87v4.87h-4.87zM17.92 32.55h4.87v4.87h-4.87zM24.98 32.55h4.87v4.87h-4.87z"/><path class="cls-2" d="M10.86 41.59h18.98v4.44H10.86zM10.86 50.43h18.98v4.44H10.86zM10.86 59.26h18.98v4.44H10.86z"/><rect class="cls-4" x="61.61" y="25.47" width="32.22" height="71.13" rx="1.59" ry="1.59"/><path class="cls-2" d="M80.99 82.36c0 1.92-1.56 3.47-3.47 3.47s-3.47-1.56-3.47-3.47 1.56-3.47 3.47-3.47 3.47 1.56 3.47 3.47Z"/><path class="cls-3" d="M68.23 32.55h4.87v4.87h-4.87zM75.29 32.55h4.87v4.87h-4.87zM82.35 32.55h4.87v4.87h-4.87z"/><path class="cls-2" d="M68.23 41.59h18.98v4.44H68.23zM68.23 50.43h18.98v4.44H68.23zM68.23 59.26h18.98v4.44H68.23z"/><rect class="cls-4" x="30.08" y="18.31" width="37.9" height="85.45" rx="1.59" ry="1.59"/><circle class="cls-2" cx="48.8" cy="87" r="4.09"/><path class="cls-3" d="M37.87 26.64h5.73v5.73h-5.73zM46.17 26.64h5.73v5.73h-5.73zM54.48 26.64h5.73v5.73h-5.73z"/><path class="cls-2" d="M37.87 39.04H60.2v5.23H37.87zM37.87 49.44H60.2v5.23H37.87zM37.87 59.83H60.2v5.23H37.87z"/><path id="_スライス_" data-name="&amp;lt;スライス&amp;gt;" class="cls-1" d="M0 0h200v115H0z"/><path id="_スライス_-2" data-name="&amp;lt;スライス&amp;gt;" class="cls-1" d="M0 0h200v115H0z"/></g></svg>