<svg id="_レイヤー_2" data-name="レイヤー 2" xmlns="http://www.w3.org/2000/svg" viewBox="0 0 200 115.26"><defs><style>.cls-2,.cls-3{fill:none;stroke:#0082e9;stroke-linecap:round;stroke-linejoin:round;stroke-width:4px}.cls-3{stroke:#0af}</style></defs><g id="Content"><path class="cls-2" d="M113.5 113.26h-87v-87h87v87zM113.5 40.4h-87M38.84 53.41l29.11-.21"/><path class="cls-3" d="M38.84 62.41h28.9"/><path class="cls-2" d="M38.84 71.41h28.9"/><path class="cls-3" d="M38.84 80.41h28.9"/><path class="cls-2" d="M38.84 89.41H78.5M38.84 98.41h14.9"/><path class="cls-3" d="M62 98.41h27.74"/><path d="M128.65 109.76C114.62 102.52 89 90 89 58V28.41l39.65-10.65" style="fill:#eaf0f4"/><path class="cls-2" d="M128.97 109.76C114.94 102.52 89.32 90 89.32 58V32.41l39.65-14.65M129.35 109.76C143.38 102.52 169 90 169 58V32.41l-39.65-14.65"/><text transform="translate(94.92 64.95)" style="fill:#0af;font-family:NotoSansCJKjp-Bold-83pv-RKSJ-H,'Noto Sans CJK JP';font-size:20px;font-weight:700;letter-spacing:.01em"><tspan x="0" y="0">HTTPS</tspan></text><path id="_スライス_" data-name="&amp;lt;スライス&amp;gt;" style="fill:none" d="M0 0h200v115H0z"/></g></svg>