<svg id="_レイヤー_2" data-name="レイヤー 2" xmlns="http://www.w3.org/2000/svg" viewBox="0 0 200 115.24"><defs><style>.cls-2,.cls-3,.cls-5{fill:none}.cls-2{stroke-miterlimit:10;stroke-width:.81px}.cls-2,.cls-5{stroke:#fff}.cls-6{fill:#0af}.cls-7{fill:#fff}.cls-3,.cls-5{stroke-linecap:round;stroke-linejoin:round}.cls-3{stroke:#0082e9;stroke-width:4px}.cls-5{stroke-width:7px}</style></defs><g id="Content"><path class="cls-3" d="M139.72 72.19H30V2h109.72v70.19zM139.72 13.41H30"/><circle class="cls-6" cx="115.12" cy="7.24" r="2.02"/><circle class="cls-6" cx="123.99" cy="7.24" r="2.02"/><circle class="cls-6" cx="132.87" cy="7.24" r="2.02"/><path style="stroke:#0af;stroke-linecap:round;stroke-linejoin:round;stroke-width:4px;fill:none" d="M45.33 24.59h80.68v20.17H45.33z"/><path class="cls-5" d="M84.26 95.36c-.4 0-.74-.14-.99-.39l-11.5-11.5c-.25-.25-.39-.59-.39-.94s.14-.69.39-.94.59-.39.94-.39.69.14.94.39L84.76 92.7h12.62c.99 0 1.8-.81 1.8-1.8s-.81-1.8-1.8-1.8H86.8c-.09 0-.17 0-.26-.03-.02 0-.24-.07-.25-.07-.05-.02-.1-.05-.14-.07l-.09-.05c-.08-.05-.15-.11-.21-.17l-9.66-9.66a1.328 1.328 0 0 1 .94-2.27c.35 0 .69.14.94.39l9.27 9.27h10.02c2.46 0 4.47 2 4.47 4.47s-2 4.47-4.47 4.47H84.23Z"/><path class="cls-5" d="M77.15 77.16c.24 0 .48.09.66.27l9.39 9.39h10.19c2.24 0 4.07 1.82 4.07 4.07s-1.82 4.07-4.07 4.07H84.22a.93.93 0 0 1-.66-.27l-11.5-11.5a.93.93 0 0 1 0-1.31c.18-.18.42-.27.66-.27s.48.09.66.27l11.23 11.23H97.4a2.21 2.21 0 0 0 0-4.42H86.82c-.06 0-.12 0-.18-.02-.03 0-.06-.02-.08-.02-.03 0-.06-.02-.09-.03a.467.467 0 0 1-.1-.05l-.06-.03a.526.526 0 0 1-.14-.12l-9.66-9.66a.93.93 0 0 1 0-1.31.93.93 0 0 1 .66-.27m0-.81a1.738 1.738 0 0 0-1.23 2.97L85.6 89c.08.08.17.15.27.22.03.02.09.06.12.07.06.03.11.06.17.09.05.02.11.04.16.05.06.02.11.04.16.05.12.02.23.03.34.03H97.4c.77 0 1.4.63 1.4 1.4s-.63 1.4-1.4 1.4H84.95L73.96 81.32c-.33-.33-.76-.51-1.23-.51s-.9.18-1.23.51c-.68.68-.68 1.78 0 2.46L83 95.28c.33.33.76.51 1.23.51H97.4c2.69 0 4.87-2.19 4.87-4.87s-2.19-4.87-4.87-4.87h-9.86l-9.16-9.15c-.33-.33-.76-.51-1.23-.51h0Z"/><path class="cls-5" d="M70.06 106.84c-.09 0-.18 0-.26-.03-2.07-.4-3.99-1.92-5.14-4.05-1.11-2.06-1.38-4.36-1.5-5.92-.35-4.84.42-10.2 2.37-16.38 1.38-4.38 2.99-8.1 4.91-11.36a9.159 9.159 0 0 1-1.81-5.47c0-5.09 4.14-9.23 9.23-9.23s9.23 4.14 9.23 9.23c0 3.21-1.68 6.19-4.41 7.87 1.65 2.79 2.86 5.78 3.62 8.91.08.35.03.7-.16 1.01s-.48.52-.82.6c-.1.02-.2.04-.31.04-.62 0-1.15-.42-1.29-1.02-.71-2.96-1.9-5.81-3.51-8.48-.77.2-1.55.31-2.34.31-1.97 0-3.89-.64-5.48-1.8-1.67 2.94-3.08 6.28-4.32 10.2-1.85 5.85-2.58 10.88-2.26 15.38.15 2.08.53 3.62 1.19 4.85.77 1.44 2.01 2.45 3.31 2.7.72.14 1.19.84 1.05 1.56a1.34 1.34 0 0 1-1.31 1.08Zm7.81-49.77c-3.62 0-6.57 2.95-6.57 6.57s2.95 6.57 6.57 6.57 6.57-2.95 6.57-6.57-2.95-6.57-6.57-6.57Z"/><path class="cls-5" d="M77.87 54.8c4.87 0 8.83 3.96 8.83 8.83 0 3.32-1.84 6.21-4.56 7.72 1.73 2.84 3 5.91 3.78 9.15.12.5-.19 1-.69 1.12-.07.02-.15.03-.22.03-.42 0-.8-.29-.9-.71-.76-3.14-2.02-6.11-3.72-8.85-.8.24-1.65.37-2.52.37-2.12 0-4.07-.75-5.59-2-1.77 3.04-3.28 6.55-4.59 10.69-1.86 5.9-2.6 10.98-2.27 15.53.16 2.14.55 3.74 1.23 5.01.83 1.54 2.17 2.63 3.59 2.9.5.1.83.59.73 1.09-.09.44-.48.75-.91.75-.06 0-.12 0-.18-.02-1.96-.38-3.78-1.82-4.87-3.85-1.07-1.99-1.34-4.24-1.45-5.76-.35-4.79.42-10.1 2.36-16.23 1.41-4.47 3.06-8.24 5.02-11.51a8.776 8.776 0 0 1-1.89-5.44c0-4.87 3.96-8.83 8.83-8.83m0 15.8c3.84 0 6.97-3.13 6.97-6.97s-3.13-6.97-6.97-6.97-6.97 3.13-6.97 6.97 3.13 6.97 6.97 6.97m0-16.61c-5.31 0-9.64 4.32-9.64 9.64 0 1.98.6 3.87 1.73 5.49-1.88 3.22-3.46 6.9-4.82 11.21-1.96 6.23-2.75 11.63-2.39 16.53.12 1.59.4 3.96 1.55 6.08 1.2 2.24 3.23 3.83 5.43 4.26a1.726 1.726 0 0 0 2.03-1.38 1.73 1.73 0 0 0-1.37-2.03c-1.18-.23-2.31-1.16-3.03-2.49-.63-1.17-.99-2.66-1.14-4.69-.32-4.45.41-9.43 2.24-15.23 1.17-3.72 2.51-6.92 4.07-9.74a9.662 9.662 0 0 0 5.34 1.62c.72 0 1.44-.08 2.15-.25 1.52 2.56 2.63 5.28 3.31 8.11a1.734 1.734 0 0 0 2.1 1.28 1.7 1.7 0 0 0 1.07-.78c.24-.4.32-.86.21-1.31-.73-3.04-1.9-5.96-3.47-8.69a9.654 9.654 0 0 0 4.27-8c0-5.31-4.32-9.64-9.64-9.64h0Zm0 15.8c-3.4 0-6.16-2.77-6.16-6.16s2.77-6.16 6.16-6.16 6.16 2.77 6.16 6.16-2.77 6.16-6.16 6.16h0ZM149.96 95.35h-13.09c-2.46 0-4.47-2-4.47-4.46s2-4.47 4.47-4.47h10.02l9.27-9.27c.25-.25.59-.39.94-.39s.69.14.94.39.39.59.39.94-.14.69-.39.94l-9.66 9.66c-.06.06-.13.12-.2.17l-.26-.31.17.37s-.13.07-.14.07c-.04.02-.08.03-.12.04-.06.02-.1.03-.14.04-.09.02-.17.03-.26.03h-10.58c-.99 0-1.8.81-1.8 1.8s.81 1.8 1.8 1.8h12.62l11.11-11.11c.25-.25.59-.39.94-.39s.69.14.94.39.39.59.39.94-.14.69-.39.94l-11.5 11.5c-.25.25-.59.39-.94.39h-.08Z"/><path class="cls-5" d="M157.11 77.16c.24 0 .48.09.66.27.36.36.36.95 0 1.31l-9.66 9.66s-.09.08-.14.12l-.06.03c-.03.02-.06.04-.1.05l-.09.03c-.03 0-.05.02-.08.02-.06.01-.12.02-.18.02h-10.58a2.21 2.21 0 0 0 0 4.42h12.79l11.23-11.23c.18-.18.42-.27.66-.27s.48.09.66.27c.36.36.36.95 0 1.31l-11.5 11.5a.93.93 0 0 1-.66.27h-13.17c-2.24 0-4.07-1.82-4.07-4.07s1.82-4.07 4.07-4.07h10.19l9.39-9.39a.93.93 0 0 1 .66-.27m0-.81c-.46 0-.9.18-1.23.51l-9.16 9.15h-9.86c-2.69 0-4.87 2.19-4.87 4.87s2.19 4.87 4.87 4.87h13.17c.46 0 .9-.18 1.23-.51l11.5-11.5c.68-.68.68-1.78 0-2.46-.33-.33-.76-.51-1.23-.51s-.9.18-1.23.51l-10.99 10.99h-12.45c-.77 0-1.4-.63-1.4-1.4s.63-1.4 1.4-1.4h10.58c.11 0 .23-.01.34-.03.05-.01.1-.02.15-.04.06-.02.12-.03.17-.05.06-.03.12-.06.17-.09.05-.02.09-.05.13-.08.09-.06.18-.14.27-.22l9.66-9.66c.68-.68.68-1.78 0-2.46-.33-.33-.76-.51-1.23-.51h0Z"/><path class="cls-5" d="M164.21 106.84c-.64 0-1.19-.45-1.31-1.08a1.33 1.33 0 0 1 1.05-1.56c1.3-.25 2.54-1.26 3.31-2.7.66-1.22 1.03-2.76 1.19-4.85.33-4.5-.41-9.53-2.26-15.38-1.24-3.92-2.65-7.27-4.32-10.2a9.224 9.224 0 0 1-5.48 1.8c-.79 0-1.57-.1-2.34-.31-1.62 2.67-2.8 5.52-3.51 8.48-.15.6-.68 1.02-1.29 1.02-.11 0-.22-.01-.32-.04-.71-.17-1.15-.89-.98-1.61.76-3.13 1.97-6.13 3.62-8.92a9.255 9.255 0 0 1-4.41-7.87c0-5.09 4.14-9.23 9.23-9.23s9.23 4.14 9.23 9.23c0 1.99-.62 3.87-1.81 5.47 1.92 3.25 3.53 6.97 4.91 11.36 1.95 6.18 2.73 11.54 2.37 16.38-.11 1.56-.39 3.86-1.5 5.92-1.15 2.13-3.07 3.65-5.15 4.05-.08.02-.17.02-.26.02Zm-7.81-49.77c-3.62 0-6.57 2.95-6.57 6.57s2.95 6.57 6.57 6.57 6.57-2.95 6.57-6.57-2.95-6.57-6.57-6.57Z"/><path class="cls-5" d="M156.39 54.8c4.87 0 8.83 3.96 8.83 8.83 0 2.05-.71 3.94-1.89 5.44 1.96 3.27 3.6 7.03 5.02 11.51 1.93 6.13 2.7 11.44 2.36 16.23-.11 1.52-.38 3.77-1.45 5.76-1.09 2.03-2.91 3.47-4.87 3.85a.922.922 0 0 1-1.09-.73c-.1-.5.23-.99.73-1.09 1.42-.28 2.76-1.36 3.59-2.9.69-1.28 1.08-2.87 1.23-5.01.33-4.55-.41-9.63-2.27-15.53-1.31-4.14-2.81-7.64-4.59-10.69-1.52 1.25-3.47 2-5.59 2-.88 0-1.72-.13-2.52-.37-1.7 2.74-2.96 5.71-3.72 8.85-.1.43-.48.71-.9.71-.07 0-.15 0-.22-.03a.93.93 0 0 1-.69-1.12c.78-3.24 2.06-6.31 3.78-9.15-2.72-1.51-4.56-4.4-4.56-7.72 0-4.87 3.96-8.83 8.83-8.83m0 15.8c3.84 0 6.97-3.13 6.97-6.97s-3.13-6.97-6.97-6.97-6.97 3.13-6.97 6.97 3.13 6.97 6.97 6.97m0-16.61c-5.31 0-9.64 4.32-9.64 9.64 0 3.22 1.62 6.21 4.27 8a33.115 33.115 0 0 0-3.47 8.69c-.11.45-.04.92.21 1.31.24.4.62.67 1.08.78a1.743 1.743 0 0 0 2.1-1.28c.68-2.83 1.8-5.55 3.31-8.11.71.16 1.43.25 2.15.25 1.9 0 3.77-.57 5.34-1.62 1.56 2.82 2.89 6.01 4.07 9.74 1.83 5.8 2.56 10.79 2.24 15.23-.15 2.03-.51 3.52-1.14 4.69-.72 1.33-1.85 2.26-3.03 2.49-.94.18-1.56 1.1-1.37 2.04a1.744 1.744 0 0 0 2.03 1.38c2.19-.43 4.22-2.02 5.42-4.26 1.14-2.12 1.43-4.49 1.55-6.08.35-4.9-.43-10.3-2.39-16.53-1.36-4.32-2.94-7.99-4.82-11.21a9.535 9.535 0 0 0 1.73-5.49c0-5.31-4.32-9.64-9.64-9.64h0Zm0 15.8c-3.4 0-6.16-2.77-6.16-6.16s2.77-6.16 6.16-6.16 6.16 2.77 6.16 6.16-2.77 6.16-6.16 6.16h0ZM116.81 51.01c-4.72 0-8.55-3.84-8.55-8.55s3.84-8.55 8.55-8.55 8.55 3.84 8.55 8.55-3.84 8.55-8.55 8.55Zm0-14.41c-3.23 0-5.85 2.63-5.85 5.85s2.63 5.85 5.85 5.85 5.85-2.62 5.85-5.85-2.63-5.85-5.85-5.85Z"/><path class="cls-5" d="M116.81 34.31c4.49 0 8.15 3.66 8.15 8.15s-3.66 8.15-8.15 8.15-8.15-3.66-8.15-8.15 3.66-8.15 8.15-8.15m0 14.41c3.45 0 6.26-2.81 6.26-6.26s-2.81-6.26-6.26-6.26-6.26 2.81-6.26 6.26 2.81 6.26 6.26 6.26m0-15.21c-4.94 0-8.96 4.02-8.96 8.96s4.02 8.96 8.96 8.96 8.96-4.02 8.96-8.96-4.02-8.96-8.96-8.96h0Zm0 14.41a5.45 5.45 0 1 1 0-10.9 5.45 5.45 0 0 1 0 10.9h0ZM129.12 68.99c-.74 0-1.35-.61-1.35-1.35v-5.17c0-4.09-4.12-7.42-9.17-7.42h-3.58c-5.06 0-9.17 3.33-9.17 7.42v5.17c0 .75-.61 1.35-1.35 1.35s-1.35-.61-1.35-1.35v-5.17c0-5.58 5.33-10.12 11.87-10.12h3.58c6.55 0 11.87 4.54 11.87 10.12v5.17c0 .75-.61 1.35-1.35 1.35Z"/><path class="cls-5" d="M118.6 52.75c6.32 0 11.47 4.36 11.47 9.72v5.17c0 .52-.42.95-.95.95s-.95-.42-.95-.95v-5.17c0-4.31-4.3-7.82-9.58-7.82h-3.58c-5.28 0-9.58 3.51-9.58 7.82v5.17c0 .52-.42.95-.95.95s-.95-.42-.95-.95v-5.17c0-5.36 5.15-9.72 11.47-9.72h3.58m0-.81H115c-6.77 0-12.28 4.72-12.28 10.52v5.17c0 .97.79 1.75 1.75 1.75s1.75-.79 1.75-1.75v-5.17c0-3.87 3.93-7.02 8.77-7.02h3.58c4.84 0 8.77 3.15 8.77 7.02v5.17c0 .97.79 1.75 1.75 1.75s1.75-.79 1.75-1.75v-5.17c0-5.8-5.51-10.52-12.28-10.52h0ZM76.36 109.9c-1.81 0-3.32-1.25-3.67-3.04-.19-.95.03-1.95.61-2.82l5.65-8.47a.48.48 0 0 1 .36-.19h2.2c.15 0 .31.1.38.23s.06.32-.02.45l-6.37 9.55c-.21.31-.23.67-.08 1.01.14.31.66.6 1.05.6h80.44c.41 0 .76-.23.94-.6.15-.32.1-.73-.12-1.07l-6.32-9.49a.478.478 0 0 1-.02-.45c.07-.13.24-.23.38-.23h2.19c.13 0 .29.08.36.19l5.65 8.47c.58.87.8 1.88.61 2.82-.35 1.79-1.87 3.04-3.67 3.04H76.36Z"/><path class="cls-5" d="M153.97 95.77s.02 0 .03.01l5.65 8.47c.49.74.72 1.65.55 2.52a3.34 3.34 0 0 1-3.28 2.72H76.36c-1.56 0-2.95-1.09-3.28-2.72-.17-.87.06-1.78.55-2.52l5.65-8.47s.02-.01.03-.01h2.19s.04.03.03.05l-6.37 9.55c-.28.43-.32.94-.11 1.4.22.47.89.83 1.42.83h80.44c.57 0 1.06-.31 1.3-.83.22-.47.14-1.03-.15-1.46l-6.32-9.49s0-.05.03-.05h2.19m0-.81h-2.19c-.3 0-.6.18-.74.44a.83.83 0 0 0 .04.86l6.32 9.48c.14.22.18.48.09.67-.11.23-.32.37-.57.37H76.47c-.26 0-.62-.21-.69-.37-.1-.2-.08-.42.05-.61l6.37-9.55c.16-.25.18-.6.04-.86a.846.846 0 0 0-.74-.44h-2.19c-.27 0-.55.15-.7.38l-5.64 8.47c-.63.95-.88 2.09-.67 3.13.39 1.98 2.07 3.37 4.07 3.37h80.56c2 0 3.68-1.39 4.07-3.37.21-1.04-.04-2.18-.67-3.13l-5.65-8.47a.88.88 0 0 0-.7-.37h0ZM144.29 85.05c-.13 0-.26-.07-.34-.18l-8.57-12.85a1.02 1.02 0 0 0-.86-.46H98.73c-.35 0-.67.17-.86.46L89.3 84.87c-.08.11-.2.18-.34.18h-2.28c-.15 0-.29-.08-.36-.21s-.06-.29.02-.41l9.27-13.9c.7-1.04 1.86-1.66 3.11-1.66h35.79c1.25 0 2.41.62 3.11 1.66l9.27 13.9c.08.12.09.28.02.41s-.21.21-.36.21h-2.28Z"/><path class="cls-5" d="M134.53 69.27c1.12 0 2.15.55 2.77 1.48l9.27 13.9h-2.28l-8.57-12.85c-.27-.4-.71-.64-1.19-.64H98.74c-.48 0-.93.24-1.19.64l-8.57 12.85H86.7l9.27-13.9c.62-.93 1.65-1.48 2.77-1.48h35.79m0-.81H98.74c-1.39 0-2.67.69-3.44 1.84l-9.27 13.9a.8.8 0 0 0-.04.83c.14.26.41.43.71.43h2.28c.27 0 .52-.14.67-.36l8.57-12.85c.12-.18.31-.28.52-.28h35.79c.21 0 .41.1.52.28l8.57 12.85c.15.22.4.36.67.36h2.28c.3 0 .57-.16.71-.43.14-.26.12-.58-.04-.83l-9.27-13.9a4.141 4.141 0 0 0-3.44-1.84h0Z"/><path class="cls-2" d="M84.26 95.36c-.4 0-.74-.14-.99-.39l-11.5-11.5c-.25-.25-.39-.59-.39-.94s.14-.69.39-.94.59-.39.94-.39.69.14.94.39L84.76 92.7h12.62c.99 0 1.8-.81 1.8-1.8s-.81-1.8-1.8-1.8H86.8c-.09 0-.17 0-.26-.03-.02 0-.24-.07-.25-.07-.05-.02-.1-.05-.14-.07l-.09-.05c-.08-.05-.15-.11-.21-.17l-9.66-9.66a1.328 1.328 0 0 1 .94-2.27c.35 0 .69.14.94.39l9.27 9.27h10.02c2.46 0 4.47 2 4.47 4.47s-2 4.47-4.47 4.47H84.23Z"/><path class="cls-2" d="M77.15 77.16c.24 0 .48.09.66.27l9.39 9.39h10.19c2.24 0 4.07 1.82 4.07 4.07s-1.82 4.07-4.07 4.07H84.22a.93.93 0 0 1-.66-.27l-11.5-11.5a.93.93 0 0 1 0-1.31c.18-.18.42-.27.66-.27s.48.09.66.27l11.23 11.23H97.4a2.21 2.21 0 0 0 0-4.42H86.82c-.06 0-.12 0-.18-.02-.03 0-.06-.02-.08-.02-.03 0-.06-.02-.09-.03a.467.467 0 0 1-.1-.05l-.06-.03a.526.526 0 0 1-.14-.12l-9.66-9.66a.93.93 0 0 1 0-1.31.93.93 0 0 1 .66-.27m0-.81a1.738 1.738 0 0 0-1.23 2.97L85.6 89c.08.08.17.15.27.22.03.02.09.06.12.07.06.03.11.06.17.09.05.02.11.04.16.05.06.02.11.04.16.05.12.02.23.03.34.03H97.4c.77 0 1.4.63 1.4 1.4s-.63 1.4-1.4 1.4H84.95L73.96 81.32c-.33-.33-.76-.51-1.23-.51s-.9.18-1.23.51c-.68.68-.68 1.78 0 2.46L83 95.28c.33.33.76.51 1.23.51H97.4c2.69 0 4.87-2.19 4.87-4.87s-2.19-4.87-4.87-4.87h-9.86l-9.16-9.15c-.33-.33-.76-.51-1.23-.51Z"/><path class="cls-2" d="M70.06 106.84c-.09 0-.18 0-.26-.03-2.07-.4-3.99-1.92-5.14-4.05-1.11-2.06-1.38-4.36-1.5-5.92-.35-4.84.42-10.2 2.37-16.38 1.38-4.38 2.99-8.1 4.91-11.36a9.159 9.159 0 0 1-1.81-5.47c0-5.09 4.14-9.23 9.23-9.23s9.23 4.14 9.23 9.23c0 3.21-1.68 6.19-4.41 7.87 1.65 2.79 2.86 5.78 3.62 8.91.08.35.03.7-.16 1.01s-.48.52-.82.6c-.1.02-.2.04-.31.04-.62 0-1.15-.42-1.29-1.02-.71-2.96-1.9-5.81-3.51-8.48-.77.2-1.55.31-2.34.31-1.97 0-3.89-.64-5.48-1.8-1.67 2.94-3.08 6.28-4.32 10.2-1.85 5.85-2.58 10.88-2.26 15.38.15 2.08.53 3.62 1.19 4.85.77 1.44 2.01 2.45 3.31 2.7.72.14 1.19.84 1.05 1.56a1.34 1.34 0 0 1-1.31 1.08Zm7.81-49.77c-3.62 0-6.57 2.95-6.57 6.57s2.95 6.57 6.57 6.57 6.57-2.95 6.57-6.57-2.95-6.57-6.57-6.57Z"/><path class="cls-2" d="M77.87 54.8c4.87 0 8.83 3.96 8.83 8.83 0 3.32-1.84 6.21-4.56 7.72 1.73 2.84 3 5.91 3.78 9.15.12.5-.19 1-.69 1.12-.07.02-.15.03-.22.03-.42 0-.8-.29-.9-.71-.76-3.14-2.02-6.11-3.72-8.85-.8.24-1.65.37-2.52.37-2.12 0-4.07-.75-5.59-2-1.77 3.04-3.28 6.55-4.59 10.69-1.86 5.9-2.6 10.98-2.27 15.53.16 2.14.55 3.74 1.23 5.01.83 1.54 2.17 2.63 3.59 2.9.5.1.83.59.73 1.09-.09.44-.48.75-.91.75-.06 0-.12 0-.18-.02-1.96-.38-3.78-1.82-4.87-3.85-1.07-1.99-1.34-4.24-1.45-5.76-.35-4.79.42-10.1 2.36-16.23 1.41-4.47 3.06-8.24 5.02-11.51a8.776 8.776 0 0 1-1.89-5.44c0-4.87 3.96-8.83 8.83-8.83m0 15.8c3.84 0 6.97-3.13 6.97-6.97s-3.13-6.97-6.97-6.97-6.97 3.13-6.97 6.97 3.13 6.97 6.97 6.97m0-16.61c-5.31 0-9.64 4.32-9.64 9.64 0 1.98.6 3.87 1.73 5.49-1.88 3.22-3.46 6.9-4.82 11.21-1.96 6.23-2.75 11.63-2.39 16.53.12 1.59.4 3.96 1.55 6.08 1.2 2.24 3.23 3.83 5.43 4.26a1.726 1.726 0 0 0 2.03-1.38 1.73 1.73 0 0 0-1.37-2.03c-1.18-.23-2.31-1.16-3.03-2.49-.63-1.17-.99-2.66-1.14-4.69-.32-4.45.41-9.43 2.24-15.23 1.17-3.72 2.51-6.92 4.07-9.74a9.662 9.662 0 0 0 5.34 1.62c.72 0 1.44-.08 2.15-.25 1.52 2.56 2.63 5.28 3.31 8.11a1.734 1.734 0 0 0 2.1 1.28 1.7 1.7 0 0 0 1.07-.78c.24-.4.32-.86.21-1.31-.73-3.04-1.9-5.96-3.47-8.69a9.654 9.654 0 0 0 4.27-8c0-5.31-4.32-9.64-9.64-9.64Zm0 15.8c-3.4 0-6.16-2.77-6.16-6.16s2.77-6.16 6.16-6.16 6.16 2.77 6.16 6.16-2.77 6.16-6.16 6.16ZM149.96 95.35h-13.09c-2.46 0-4.47-2-4.47-4.46s2-4.47 4.47-4.47h10.02l9.27-9.27c.25-.25.59-.39.94-.39s.69.14.94.39.39.59.39.94-.14.69-.39.94l-9.66 9.66c-.06.06-.13.12-.2.17l-.26-.31.17.37s-.13.07-.14.07c-.04.02-.08.03-.12.04-.06.02-.1.03-.14.04-.09.02-.17.03-.26.03h-10.58c-.99 0-1.8.81-1.8 1.8s.81 1.8 1.8 1.8h12.62l11.11-11.11c.25-.25.59-.39.94-.39s.69.14.94.39.39.59.39.94-.14.69-.39.94l-11.5 11.5c-.25.25-.59.39-.94.39h-.08Z"/><path class="cls-2" d="M157.11 77.16c.24 0 .48.09.66.27.36.36.36.95 0 1.31l-9.66 9.66s-.09.08-.14.12l-.06.03c-.03.02-.06.04-.1.05l-.09.03c-.03 0-.05.02-.08.02-.06.01-.12.02-.18.02h-10.58a2.21 2.21 0 0 0 0 4.42h12.79l11.23-11.23c.18-.18.42-.27.66-.27s.48.09.66.27c.36.36.36.95 0 1.31l-11.5 11.5a.93.93 0 0 1-.66.27h-13.17c-2.24 0-4.07-1.82-4.07-4.07s1.82-4.07 4.07-4.07h10.19l9.39-9.39a.93.93 0 0 1 .66-.27m0-.81c-.46 0-.9.18-1.23.51l-9.16 9.15h-9.86c-2.69 0-4.87 2.19-4.87 4.87s2.19 4.87 4.87 4.87h13.17c.46 0 .9-.18 1.23-.51l11.5-11.5c.68-.68.68-1.78 0-2.46-.33-.33-.76-.51-1.23-.51s-.9.18-1.23.51l-10.99 10.99h-12.45c-.77 0-1.4-.63-1.4-1.4s.63-1.4 1.4-1.4h10.58c.11 0 .23-.01.34-.03.05-.01.1-.02.15-.04.06-.02.12-.03.17-.05.06-.03.12-.06.17-.09.05-.02.09-.05.13-.08.09-.06.18-.14.27-.22l9.66-9.66c.68-.68.68-1.78 0-2.46-.33-.33-.76-.51-1.23-.51Z"/><path class="cls-2" d="M164.21 106.84c-.64 0-1.19-.45-1.31-1.08a1.33 1.33 0 0 1 1.05-1.56c1.3-.25 2.54-1.26 3.31-2.7.66-1.22 1.03-2.76 1.19-4.85.33-4.5-.41-9.53-2.26-15.38-1.24-3.92-2.65-7.27-4.32-10.2a9.224 9.224 0 0 1-5.48 1.8c-.79 0-1.57-.1-2.34-.31-1.62 2.67-2.8 5.52-3.51 8.48-.15.6-.68 1.02-1.29 1.02-.11 0-.22-.01-.32-.04-.71-.17-1.15-.89-.98-1.61.76-3.13 1.97-6.13 3.62-8.92a9.255 9.255 0 0 1-4.41-7.87c0-5.09 4.14-9.23 9.23-9.23s9.23 4.14 9.23 9.23c0 1.99-.62 3.87-1.81 5.47 1.92 3.25 3.53 6.97 4.91 11.36 1.95 6.18 2.73 11.54 2.37 16.38-.11 1.56-.39 3.86-1.5 5.92-1.15 2.13-3.07 3.65-5.15 4.05-.08.02-.17.02-.26.02Zm-7.81-49.77c-3.62 0-6.57 2.95-6.57 6.57s2.95 6.57 6.57 6.57 6.57-2.95 6.57-6.57-2.95-6.57-6.57-6.57Z"/><path class="cls-2" d="M156.39 54.8c4.87 0 8.83 3.96 8.83 8.83 0 2.05-.71 3.94-1.89 5.44 1.96 3.27 3.6 7.03 5.02 11.51 1.93 6.13 2.7 11.44 2.36 16.23-.11 1.52-.38 3.77-1.45 5.76-1.09 2.03-2.91 3.47-4.87 3.85a.922.922 0 0 1-1.09-.73c-.1-.5.23-.99.73-1.09 1.42-.28 2.76-1.36 3.59-2.9.69-1.28 1.08-2.87 1.23-5.01.33-4.55-.41-9.63-2.27-15.53-1.31-4.14-2.81-7.64-4.59-10.69-1.52 1.25-3.47 2-5.59 2-.88 0-1.72-.13-2.52-.37-1.7 2.74-2.96 5.71-3.72 8.85-.1.43-.48.71-.9.71-.07 0-.15 0-.22-.03a.93.93 0 0 1-.69-1.12c.78-3.24 2.06-6.31 3.78-9.15-2.72-1.51-4.56-4.4-4.56-7.72 0-4.87 3.96-8.83 8.83-8.83m0 15.8c3.84 0 6.97-3.13 6.97-6.97s-3.13-6.97-6.97-6.97-6.97 3.13-6.97 6.97 3.13 6.97 6.97 6.97m0-16.61c-5.31 0-9.64 4.32-9.64 9.64 0 3.22 1.62 6.21 4.27 8a33.115 33.115 0 0 0-3.47 8.69c-.11.45-.04.92.21 1.31.24.4.62.67 1.08.78a1.743 1.743 0 0 0 2.1-1.28c.68-2.83 1.8-5.55 3.31-8.11.71.16 1.43.25 2.15.25 1.9 0 3.77-.57 5.34-1.62 1.56 2.82 2.89 6.01 4.07 9.74 1.83 5.8 2.56 10.79 2.24 15.23-.15 2.03-.51 3.52-1.14 4.69-.72 1.33-1.85 2.26-3.03 2.49-.94.18-1.56 1.1-1.37 2.04a1.744 1.744 0 0 0 2.03 1.38c2.19-.43 4.22-2.02 5.42-4.26 1.14-2.12 1.43-4.49 1.55-6.08.35-4.9-.43-10.3-2.39-16.53-1.36-4.32-2.94-7.99-4.82-11.21a9.535 9.535 0 0 0 1.73-5.49c0-5.31-4.32-9.64-9.64-9.64Zm0 15.8c-3.4 0-6.16-2.77-6.16-6.16s2.77-6.16 6.16-6.16 6.16 2.77 6.16 6.16-2.77 6.16-6.16 6.16ZM116.81 51.01c-4.72 0-8.55-3.84-8.55-8.55s3.84-8.55 8.55-8.55 8.55 3.84 8.55 8.55-3.84 8.55-8.55 8.55Zm0-14.41c-3.23 0-5.85 2.63-5.85 5.85s2.63 5.85 5.85 5.85 5.85-2.62 5.85-5.85-2.63-5.85-5.85-5.85Z"/><path class="cls-2" d="M116.81 34.31c4.49 0 8.15 3.66 8.15 8.15s-3.66 8.15-8.15 8.15-8.15-3.66-8.15-8.15 3.66-8.15 8.15-8.15m0 14.41c3.45 0 6.26-2.81 6.26-6.26s-2.81-6.26-6.26-6.26-6.26 2.81-6.26 6.26 2.81 6.26 6.26 6.26m0-15.21c-4.94 0-8.96 4.02-8.96 8.96s4.02 8.96 8.96 8.96 8.96-4.02 8.96-8.96-4.02-8.96-8.96-8.96Zm0 14.41a5.45 5.45 0 1 1 0-10.9 5.45 5.45 0 0 1 0 10.9ZM129.12 68.99c-.74 0-1.35-.61-1.35-1.35v-5.17c0-4.09-4.12-7.42-9.17-7.42h-3.58c-5.06 0-9.17 3.33-9.17 7.42v5.17c0 .75-.61 1.35-1.35 1.35s-1.35-.61-1.35-1.35v-5.17c0-5.58 5.33-10.12 11.87-10.12h3.58c6.55 0 11.87 4.54 11.87 10.12v5.17c0 .75-.61 1.35-1.35 1.35Z"/><path class="cls-2" d="M118.6 52.75c6.32 0 11.47 4.36 11.47 9.72v5.17c0 .52-.42.95-.95.95s-.95-.42-.95-.95v-5.17c0-4.31-4.3-7.82-9.58-7.82h-3.58c-5.28 0-9.58 3.51-9.58 7.82v5.17c0 .52-.42.95-.95.95s-.95-.42-.95-.95v-5.17c0-5.36 5.15-9.72 11.47-9.72h3.58m0-.81H115c-6.77 0-12.28 4.72-12.28 10.52v5.17c0 .97.79 1.75 1.75 1.75s1.75-.79 1.75-1.75v-5.17c0-3.87 3.93-7.02 8.77-7.02h3.58c4.84 0 8.77 3.15 8.77 7.02v5.17c0 .97.79 1.75 1.75 1.75s1.75-.79 1.75-1.75v-5.17c0-5.8-5.51-10.52-12.28-10.52ZM76.36 109.9c-1.81 0-3.32-1.25-3.67-3.04-.19-.95.03-1.95.61-2.82l5.65-8.47a.48.48 0 0 1 .36-.19h2.2c.15 0 .31.1.38.23s.06.32-.02.45l-6.37 9.55c-.21.31-.23.67-.08 1.01.14.31.66.6 1.05.6h80.44c.41 0 .76-.23.94-.6.15-.32.1-.73-.12-1.07l-6.32-9.49a.478.478 0 0 1-.02-.45c.07-.13.24-.23.38-.23h2.19c.13 0 .29.08.36.19l5.65 8.47c.58.87.8 1.88.61 2.82-.35 1.79-1.87 3.04-3.67 3.04H76.36Z"/><path class="cls-2" d="M153.97 95.77s.02 0 .03.01l5.65 8.47c.49.74.72 1.65.55 2.52a3.34 3.34 0 0 1-3.28 2.72H76.36c-1.56 0-2.95-1.09-3.28-2.72-.17-.87.06-1.78.55-2.52l5.65-8.47s.02-.01.03-.01h2.19s.04.03.03.05l-6.37 9.55c-.28.43-.32.94-.11 1.4.22.47.89.83 1.42.83h80.44c.57 0 1.06-.31 1.3-.83.22-.47.14-1.03-.15-1.46l-6.32-9.49s0-.05.03-.05h2.19m0-.81h-2.19c-.3 0-.6.18-.74.44a.83.83 0 0 0 .04.86l6.32 9.48c.14.22.18.48.09.67-.11.23-.32.37-.57.37H76.47c-.26 0-.62-.21-.69-.37-.1-.2-.08-.42.05-.61l6.37-9.55c.16-.25.18-.6.04-.86a.846.846 0 0 0-.74-.44h-2.19c-.27 0-.55.15-.7.38l-5.64 8.47c-.63.95-.88 2.09-.67 3.13.39 1.98 2.07 3.37 4.07 3.37h80.56c2 0 3.68-1.39 4.07-3.37.21-1.04-.04-2.18-.67-3.13l-5.65-8.47a.88.88 0 0 0-.7-.37ZM144.29 85.05c-.13 0-.26-.07-.34-.18l-8.57-12.85a1.02 1.02 0 0 0-.86-.46H98.73c-.35 0-.67.17-.86.46L89.3 84.87c-.08.11-.2.18-.34.18h-2.28c-.15 0-.29-.08-.36-.21s-.06-.29.02-.41l9.27-13.9c.7-1.04 1.86-1.66 3.11-1.66h35.79c1.25 0 2.41.62 3.11 1.66l9.27 13.9c.08.12.09.28.02.41s-.21.21-.36.21h-2.28Z"/><path class="cls-2" d="M134.53 69.27c1.12 0 2.15.55 2.77 1.48l9.27 13.9h-2.28l-8.57-12.85c-.27-.4-.71-.64-1.19-.64H98.74c-.48 0-.93.24-1.19.64l-8.57 12.85H86.7l9.27-13.9c.62-.93 1.65-1.48 2.77-1.48h35.79m0-.81H98.74c-1.39 0-2.67.69-3.44 1.84l-9.27 13.9a.8.8 0 0 0-.04.83c.14.26.41.43.71.43h2.28c.27 0 .52-.14.67-.36l8.57-12.85c.12-.18.31-.28.52-.28h35.79c.21 0 .41.1.52.28l8.57 12.85c.15.22.4.36.67.36h2.28c.3 0 .57-.16.71-.43.14-.26.12-.58-.04-.83l-9.27-13.9a4.141 4.141 0 0 0-3.44-1.84Z"/><path class="cls-7" d="M84.26 95.36c-.4 0-.74-.14-.99-.39l-11.5-11.5c-.25-.25-.39-.59-.39-.94s.14-.69.39-.94.59-.39.94-.39.69.14.94.39L84.76 92.7h12.62c.99 0 1.8-.81 1.8-1.8s-.81-1.8-1.8-1.8H86.8c-.09 0-.17 0-.26-.03-.02 0-.24-.07-.25-.07-.05-.02-.1-.05-.14-.07l-.09-.05c-.08-.05-.15-.11-.21-.17l-9.66-9.66a1.328 1.328 0 0 1 .94-2.27c.35 0 .69.14.94.39l9.27 9.27h10.02c2.46 0 4.47 2 4.47 4.47s-2 4.47-4.47 4.47H84.23Z"/><path class="cls-7" d="M77.15 77.16c.24 0 .48.09.66.27l9.39 9.39h10.19c2.24 0 4.07 1.82 4.07 4.07s-1.82 4.07-4.07 4.07H84.22a.93.93 0 0 1-.66-.27l-11.5-11.5a.93.93 0 0 1 0-1.31c.18-.18.42-.27.66-.27s.48.09.66.27l11.23 11.23H97.4a2.21 2.21 0 0 0 0-4.42H86.82c-.06 0-.12 0-.18-.02-.03 0-.06-.02-.08-.02-.03 0-.06-.02-.09-.03a.467.467 0 0 1-.1-.05l-.06-.03a.526.526 0 0 1-.14-.12l-9.66-9.66a.93.93 0 0 1 0-1.31.93.93 0 0 1 .66-.27m0-.81a1.738 1.738 0 0 0-1.23 2.97L85.6 89c.08.08.17.15.27.22.03.02.09.06.12.07.06.03.11.06.17.09.05.02.11.04.16.05.06.02.11.04.16.05.12.02.23.03.34.03H97.4c.77 0 1.4.63 1.4 1.4s-.63 1.4-1.4 1.4H84.95L73.96 81.32c-.33-.33-.76-.51-1.23-.51s-.9.18-1.23.51c-.68.68-.68 1.78 0 2.46L83 95.28c.33.33.76.51 1.23.51H97.4c2.69 0 4.87-2.19 4.87-4.87s-2.19-4.87-4.87-4.87h-9.86l-9.16-9.15c-.33-.33-.76-.51-1.23-.51Z"/><path class="cls-7" d="M70.06 106.84c-.09 0-.18 0-.26-.03-2.07-.4-3.99-1.92-5.14-4.05-1.11-2.06-1.38-4.36-1.5-5.92-.35-4.84.42-10.2 2.37-16.38 1.38-4.38 2.99-8.1 4.91-11.36a9.159 9.159 0 0 1-1.81-5.47c0-5.09 4.14-9.23 9.23-9.23s9.23 4.14 9.23 9.23c0 3.21-1.68 6.19-4.41 7.87 1.65 2.79 2.86 5.78 3.62 8.91.08.35.03.7-.16 1.01s-.48.52-.82.6c-.1.02-.2.04-.31.04-.62 0-1.15-.42-1.29-1.02-.71-2.96-1.9-5.81-3.51-8.48-.77.2-1.55.31-2.34.31-1.97 0-3.89-.64-5.48-1.8-1.67 2.94-3.08 6.28-4.32 10.2-1.85 5.85-2.58 10.88-2.26 15.38.15 2.08.53 3.62 1.19 4.85.77 1.44 2.01 2.45 3.31 2.7.72.14 1.19.84 1.05 1.56a1.34 1.34 0 0 1-1.31 1.08Zm7.81-49.77c-3.62 0-6.57 2.95-6.57 6.57s2.95 6.57 6.57 6.57 6.57-2.95 6.57-6.57-2.95-6.57-6.57-6.57Z"/><path class="cls-7" d="M77.87 54.8c4.87 0 8.83 3.96 8.83 8.83 0 3.32-1.84 6.21-4.56 7.72 1.73 2.84 3 5.91 3.78 9.15.12.5-.19 1-.69 1.12-.07.02-.15.03-.22.03-.42 0-.8-.29-.9-.71-.76-3.14-2.02-6.11-3.72-8.85-.8.24-1.65.37-2.52.37-2.12 0-4.07-.75-5.59-2-1.77 3.04-3.28 6.55-4.59 10.69-1.86 5.9-2.6 10.98-2.27 15.53.16 2.14.55 3.74 1.23 5.01.83 1.54 2.17 2.63 3.59 2.9.5.1.83.59.73 1.09-.09.44-.48.75-.91.75-.06 0-.12 0-.18-.02-1.96-.38-3.78-1.82-4.87-3.85-1.07-1.99-1.34-4.24-1.45-5.76-.35-4.79.42-10.1 2.36-16.23 1.41-4.47 3.06-8.24 5.02-11.51a8.776 8.776 0 0 1-1.89-5.44c0-4.87 3.96-8.83 8.83-8.83m0 15.8c3.84 0 6.97-3.13 6.97-6.97s-3.13-6.97-6.97-6.97-6.97 3.13-6.97 6.97 3.13 6.97 6.97 6.97m0-16.61c-5.31 0-9.64 4.32-9.64 9.64 0 1.98.6 3.87 1.73 5.49-1.88 3.22-3.46 6.9-4.82 11.21-1.96 6.23-2.75 11.63-2.39 16.53.12 1.59.4 3.96 1.55 6.08 1.2 2.24 3.23 3.83 5.43 4.26a1.726 1.726 0 0 0 2.03-1.38 1.73 1.73 0 0 0-1.37-2.03c-1.18-.23-2.31-1.16-3.03-2.49-.63-1.17-.99-2.66-1.14-4.69-.32-4.45.41-9.43 2.24-15.23 1.17-3.72 2.51-6.92 4.07-9.74a9.662 9.662 0 0 0 5.34 1.62c.72 0 1.44-.08 2.15-.25 1.52 2.56 2.63 5.28 3.31 8.11a1.734 1.734 0 0 0 2.1 1.28 1.7 1.7 0 0 0 1.07-.78c.24-.4.32-.86.21-1.31-.73-3.04-1.9-5.96-3.47-8.69a9.654 9.654 0 0 0 4.27-8c0-5.31-4.32-9.64-9.64-9.64Zm0 15.8c-3.4 0-6.16-2.77-6.16-6.16s2.77-6.16 6.16-6.16 6.16 2.77 6.16 6.16-2.77 6.16-6.16 6.16ZM149.96 95.35h-13.09c-2.46 0-4.47-2-4.47-4.46s2-4.47 4.47-4.47h10.02l9.27-9.27c.25-.25.59-.39.94-.39s.69.14.94.39.39.59.39.94-.14.69-.39.94l-9.66 9.66c-.06.06-.13.12-.2.17l-.26-.31.17.37s-.13.07-.14.07c-.04.02-.08.03-.12.04-.06.02-.1.03-.14.04-.09.02-.17.03-.26.03h-10.58c-.99 0-1.8.81-1.8 1.8s.81 1.8 1.8 1.8h12.62l11.11-11.11c.25-.25.59-.39.94-.39s.69.14.94.39.39.59.39.94-.14.69-.39.94l-11.5 11.5c-.25.25-.59.39-.94.39h-.08Z"/><path class="cls-7" d="M157.11 77.16c.24 0 .48.09.66.27.36.36.36.95 0 1.31l-9.66 9.66s-.09.08-.14.12l-.06.03c-.03.02-.06.04-.1.05l-.09.03c-.03 0-.05.02-.08.02-.06.01-.12.02-.18.02h-10.58a2.21 2.21 0 0 0 0 4.42h12.79l11.23-11.23c.18-.18.42-.27.66-.27s.48.09.66.27c.36.36.36.95 0 1.31l-11.5 11.5a.93.93 0 0 1-.66.27h-13.17c-2.24 0-4.07-1.82-4.07-4.07s1.82-4.07 4.07-4.07h10.19l9.39-9.39a.93.93 0 0 1 .66-.27m0-.81c-.46 0-.9.18-1.23.51l-9.16 9.15h-9.86c-2.69 0-4.87 2.19-4.87 4.87s2.19 4.87 4.87 4.87h13.17c.46 0 .9-.18 1.23-.51l11.5-11.5c.68-.68.68-1.78 0-2.46-.33-.33-.76-.51-1.23-.51s-.9.18-1.23.51l-10.99 10.99h-12.45c-.77 0-1.4-.63-1.4-1.4s.63-1.4 1.4-1.4h10.58c.11 0 .23-.01.34-.03.05-.01.1-.02.15-.04.06-.02.12-.03.17-.05.06-.03.12-.06.17-.09.05-.02.09-.05.13-.08.09-.06.18-.14.27-.22l9.66-9.66c.68-.68.68-1.78 0-2.46-.33-.33-.76-.51-1.23-.51Z"/><path class="cls-7" d="M164.21 106.84c-.64 0-1.19-.45-1.31-1.08a1.33 1.33 0 0 1 1.05-1.56c1.3-.25 2.54-1.26 3.31-2.7.66-1.22 1.03-2.76 1.19-4.85.33-4.5-.41-9.53-2.26-15.38-1.24-3.92-2.65-7.27-4.32-10.2a9.224 9.224 0 0 1-5.48 1.8c-.79 0-1.57-.1-2.34-.31-1.62 2.67-2.8 5.52-3.51 8.48-.15.6-.68 1.02-1.29 1.02-.11 0-.22-.01-.32-.04-.71-.17-1.15-.89-.98-1.61.76-3.13 1.97-6.13 3.62-8.92a9.255 9.255 0 0 1-4.41-7.87c0-5.09 4.14-9.23 9.23-9.23s9.23 4.14 9.23 9.23c0 1.99-.62 3.87-1.81 5.47 1.92 3.25 3.53 6.97 4.91 11.36 1.95 6.18 2.73 11.54 2.37 16.38-.11 1.56-.39 3.86-1.5 5.92-1.15 2.13-3.07 3.65-5.15 4.05-.08.02-.17.02-.26.02Zm-7.81-49.77c-3.62 0-6.57 2.95-6.57 6.57s2.95 6.57 6.57 6.57 6.57-2.95 6.57-6.57-2.95-6.57-6.57-6.57Z"/><path class="cls-7" d="M156.39 54.8c4.87 0 8.83 3.96 8.83 8.83 0 2.05-.71 3.94-1.89 5.44 1.96 3.27 3.6 7.03 5.02 11.51 1.93 6.13 2.7 11.44 2.36 16.23-.11 1.52-.38 3.77-1.45 5.76-1.09 2.03-2.91 3.47-4.87 3.85a.922.922 0 0 1-1.09-.73c-.1-.5.23-.99.73-1.09 1.42-.28 2.76-1.36 3.59-2.9.69-1.28 1.08-2.87 1.23-5.01.33-4.55-.41-9.63-2.27-15.53-1.31-4.14-2.81-7.64-4.59-10.69-1.52 1.25-3.47 2-5.59 2-.88 0-1.72-.13-2.52-.37-1.7 2.74-2.96 5.71-3.72 8.85-.1.43-.48.71-.9.71-.07 0-.15 0-.22-.03a.93.93 0 0 1-.69-1.12c.78-3.24 2.06-6.31 3.78-9.15-2.72-1.51-4.56-4.4-4.56-7.72 0-4.87 3.96-8.83 8.83-8.83m0 15.8c3.84 0 6.97-3.13 6.97-6.97s-3.13-6.97-6.97-6.97-6.97 3.13-6.97 6.97 3.13 6.97 6.97 6.97m0-16.61c-5.31 0-9.64 4.32-9.64 9.64 0 3.22 1.62 6.21 4.27 8a33.115 33.115 0 0 0-3.47 8.69c-.11.45-.04.92.21 1.31.24.4.62.67 1.08.78a1.743 1.743 0 0 0 2.1-1.28c.68-2.83 1.8-5.55 3.31-8.11.71.16 1.43.25 2.15.25 1.9 0 3.77-.57 5.34-1.62 1.56 2.82 2.89 6.01 4.07 9.74 1.83 5.8 2.56 10.79 2.24 15.23-.15 2.03-.51 3.52-1.14 4.69-.72 1.33-1.85 2.26-3.03 2.49-.94.18-1.56 1.1-1.37 2.04a1.744 1.744 0 0 0 2.03 1.38c2.19-.43 4.22-2.02 5.42-4.26 1.14-2.12 1.43-4.49 1.55-6.08.35-4.9-.43-10.3-2.39-16.53-1.36-4.32-2.94-7.99-4.82-11.21a9.535 9.535 0 0 0 1.73-5.49c0-5.31-4.32-9.64-9.64-9.64Zm0 15.8c-3.4 0-6.16-2.77-6.16-6.16s2.77-6.16 6.16-6.16 6.16 2.77 6.16 6.16-2.77 6.16-6.16 6.16ZM116.81 51.01c-4.72 0-8.55-3.84-8.55-8.55s3.84-8.55 8.55-8.55 8.55 3.84 8.55 8.55-3.84 8.55-8.55 8.55Zm0-14.41c-3.23 0-5.85 2.63-5.85 5.85s2.63 5.85 5.85 5.85 5.85-2.62 5.85-5.85-2.63-5.85-5.85-5.85Z"/><path class="cls-7" d="M116.81 34.31c4.49 0 8.15 3.66 8.15 8.15s-3.66 8.15-8.15 8.15-8.15-3.66-8.15-8.15 3.66-8.15 8.15-8.15m0 14.41c3.45 0 6.26-2.81 6.26-6.26s-2.81-6.26-6.26-6.26-6.26 2.81-6.26 6.26 2.81 6.26 6.26 6.26m0-15.21c-4.94 0-8.96 4.02-8.96 8.96s4.02 8.96 8.96 8.96 8.96-4.02 8.96-8.96-4.02-8.96-8.96-8.96Zm0 14.41a5.45 5.45 0 1 1 0-10.9 5.45 5.45 0 0 1 0 10.9ZM129.12 68.99c-.74 0-1.35-.61-1.35-1.35v-5.17c0-4.09-4.12-7.42-9.17-7.42h-3.58c-5.06 0-9.17 3.33-9.17 7.42v5.17c0 .75-.61 1.35-1.35 1.35s-1.35-.61-1.35-1.35v-5.17c0-5.58 5.33-10.12 11.87-10.12h3.58c6.55 0 11.87 4.54 11.87 10.12v5.17c0 .75-.61 1.35-1.35 1.35Z"/><path class="cls-7" d="M118.6 52.75c6.32 0 11.47 4.36 11.47 9.72v5.17c0 .52-.42.95-.95.95s-.95-.42-.95-.95v-5.17c0-4.31-4.3-7.82-9.58-7.82h-3.58c-5.28 0-9.58 3.51-9.58 7.82v5.17c0 .52-.42.95-.95.95s-.95-.42-.95-.95v-5.17c0-5.36 5.15-9.72 11.47-9.72h3.58m0-.81H115c-6.77 0-12.28 4.72-12.28 10.52v5.17c0 .97.79 1.75 1.75 1.75s1.75-.79 1.75-1.75v-5.17c0-3.87 3.93-7.02 8.77-7.02h3.58c4.84 0 8.77 3.15 8.77 7.02v5.17c0 .97.79 1.75 1.75 1.75s1.75-.79 1.75-1.75v-5.17c0-5.8-5.51-10.52-12.28-10.52ZM76.36 109.9c-1.81 0-3.32-1.25-3.67-3.04-.19-.95.03-1.95.61-2.82l5.65-8.47a.48.48 0 0 1 .36-.19h2.2c.15 0 .31.1.38.23s.06.32-.02.45l-6.37 9.55c-.21.31-.23.67-.08 1.01.14.31.66.6 1.05.6h80.44c.41 0 .76-.23.94-.6.15-.32.1-.73-.12-1.07l-6.32-9.49a.478.478 0 0 1-.02-.45c.07-.13.24-.23.38-.23h2.19c.13 0 .29.08.36.19l5.65 8.47c.58.87.8 1.88.61 2.82-.35 1.79-1.87 3.04-3.67 3.04H76.36Z"/><path class="cls-7" d="M153.97 95.77s.02 0 .03.01l5.65 8.47c.49.74.72 1.65.55 2.52a3.34 3.34 0 0 1-3.28 2.72H76.36c-1.56 0-2.95-1.09-3.28-2.72-.17-.87.06-1.78.55-2.52l5.65-8.47s.02-.01.03-.01h2.19s.04.03.03.05l-6.37 9.55c-.28.43-.32.94-.11 1.4.22.47.89.83 1.42.83h80.44c.57 0 1.06-.31 1.3-.83.22-.47.14-1.03-.15-1.46l-6.32-9.49s0-.05.03-.05h2.19m0-.81h-2.19c-.3 0-.6.18-.74.44a.83.83 0 0 0 .04.86l6.32 9.48c.14.22.18.48.09.67-.11.23-.32.37-.57.37H76.47c-.26 0-.62-.21-.69-.37-.1-.2-.08-.42.05-.61l6.37-9.55c.16-.25.18-.6.04-.86a.846.846 0 0 0-.74-.44h-2.19c-.27 0-.55.15-.7.38l-5.64 8.47c-.63.95-.88 2.09-.67 3.13.39 1.98 2.07 3.37 4.07 3.37h80.56c2 0 3.68-1.39 4.07-3.37.21-1.04-.04-2.18-.67-3.13l-5.65-8.47a.88.88 0 0 0-.7-.37ZM144.29 85.05c-.13 0-.26-.07-.34-.18l-8.57-12.85a1.02 1.02 0 0 0-.86-.46H98.73c-.35 0-.67.17-.86.46L89.3 84.87c-.08.11-.2.18-.34.18h-2.28c-.15 0-.29-.08-.36-.21s-.06-.29.02-.41l9.27-13.9c.7-1.04 1.86-1.66 3.11-1.66h35.79c1.25 0 2.41.62 3.11 1.66l9.27 13.9c.08.12.09.28.02.41s-.21.21-.36.21h-2.28Z"/><path class="cls-7" d="M134.53 69.27c1.12 0 2.15.55 2.77 1.48l9.27 13.9h-2.28l-8.57-12.85c-.27-.4-.71-.64-1.19-.64H98.74c-.48 0-.93.24-1.19.64l-8.57 12.85H86.7l9.27-13.9c.62-.93 1.65-1.48 2.77-1.48h35.79m0-.81H98.74c-1.39 0-2.67.69-3.44 1.84l-9.27 13.9a.8.8 0 0 0-.04.83c.14.26.41.43.71.43h2.28c.27 0 .52-.14.67-.36l8.57-12.85c.12-.18.31-.28.52-.28h35.79c.21 0 .41.1.52.28l8.57 12.85c.15.22.4.36.67.36h2.28c.3 0 .57-.16.71-.43.14-.26.12-.58-.04-.83l-9.27-13.9a4.141 4.141 0 0 0-3.44-1.84Z"/><path class="cls-6" d="M84.26 95.36c-.4 0-.74-.14-.99-.39l-11.5-11.5c-.25-.25-.39-.59-.39-.94s.14-.69.39-.94.59-.39.94-.39.69.14.94.39L84.76 92.7h12.62c.99 0 1.8-.81 1.8-1.8s-.81-1.8-1.8-1.8H86.8c-.09 0-.17 0-.26-.03-.02 0-.24-.07-.25-.07-.05-.02-.1-.05-.14-.07l-.09-.05c-.08-.05-.15-.11-.21-.17l-9.66-9.66a1.328 1.328 0 0 1 .94-2.27c.35 0 .69.14.94.39l9.27 9.27h10.02c2.46 0 4.47 2 4.47 4.47s-2 4.47-4.47 4.47H84.23Z"/><path class="cls-6" d="M77.15 77.16c.24 0 .48.09.66.27l9.39 9.39h10.19c2.24 0 4.07 1.82 4.07 4.07s-1.82 4.07-4.07 4.07H84.22a.93.93 0 0 1-.66-.27l-11.5-11.5a.93.93 0 0 1 0-1.31c.18-.18.42-.27.66-.27s.48.09.66.27l11.23 11.23H97.4a2.21 2.21 0 0 0 0-4.42H86.82c-.06 0-.12 0-.18-.02-.03 0-.06-.02-.08-.02-.03 0-.06-.02-.09-.03a.467.467 0 0 1-.1-.05l-.06-.03a.526.526 0 0 1-.14-.12l-9.66-9.66a.93.93 0 0 1 0-1.31.93.93 0 0 1 .66-.27m0-.81a1.738 1.738 0 0 0-1.23 2.97L85.6 89c.08.08.17.15.27.22.03.02.09.06.12.07.06.03.11.06.17.09.05.02.11.04.16.05.06.02.11.04.16.05.12.02.23.03.34.03H97.4c.77 0 1.4.63 1.4 1.4s-.63 1.4-1.4 1.4H84.95L73.96 81.32c-.33-.33-.76-.51-1.23-.51s-.9.18-1.23.51c-.68.68-.68 1.78 0 2.46L83 95.28c.33.33.76.51 1.23.51H97.4c2.69 0 4.87-2.19 4.87-4.87s-2.19-4.87-4.87-4.87h-9.86l-9.16-9.15c-.33-.33-.76-.51-1.23-.51Z"/><path class="cls-6" d="M70.06 106.84c-.09 0-.18 0-.26-.03-2.07-.4-3.99-1.92-5.14-4.05-1.11-2.06-1.38-4.36-1.5-5.92-.35-4.84.42-10.2 2.37-16.38 1.38-4.38 2.99-8.1 4.91-11.36a9.159 9.159 0 0 1-1.81-5.47c0-5.09 4.14-9.23 9.23-9.23s9.23 4.14 9.23 9.23c0 3.21-1.68 6.19-4.41 7.87 1.65 2.79 2.86 5.78 3.62 8.91.08.35.03.7-.16 1.01s-.48.52-.82.6c-.1.02-.2.04-.31.04-.62 0-1.15-.42-1.29-1.02-.71-2.96-1.9-5.81-3.51-8.48-.77.2-1.55.31-2.34.31-1.97 0-3.89-.64-5.48-1.8-1.67 2.94-3.08 6.28-4.32 10.2-1.85 5.85-2.58 10.88-2.26 15.38.15 2.08.53 3.62 1.19 4.85.77 1.44 2.01 2.45 3.31 2.7.72.14 1.19.84 1.05 1.56a1.34 1.34 0 0 1-1.31 1.08Zm7.81-49.77c-3.62 0-6.57 2.95-6.57 6.57s2.95 6.57 6.57 6.57 6.57-2.95 6.57-6.57-2.95-6.57-6.57-6.57Z"/><path class="cls-6" d="M77.87 54.8c4.87 0 8.83 3.96 8.83 8.83 0 3.32-1.84 6.21-4.56 7.72 1.73 2.84 3 5.91 3.78 9.15.12.5-.19 1-.69 1.12-.07.02-.15.03-.22.03-.42 0-.8-.29-.9-.71-.76-3.14-2.02-6.11-3.72-8.85-.8.24-1.65.37-2.52.37-2.12 0-4.07-.75-5.59-2-1.77 3.04-3.28 6.55-4.59 10.69-1.86 5.9-2.6 10.98-2.27 15.53.16 2.14.55 3.74 1.23 5.01.83 1.54 2.17 2.63 3.59 2.9.5.1.83.59.73 1.09-.09.44-.48.75-.91.75-.06 0-.12 0-.18-.02-1.96-.38-3.78-1.82-4.87-3.85-1.07-1.99-1.34-4.24-1.45-5.76-.35-4.79.42-10.1 2.36-16.23 1.41-4.47 3.06-8.24 5.02-11.51a8.776 8.776 0 0 1-1.89-5.44c0-4.87 3.96-8.83 8.83-8.83m0 15.8c3.84 0 6.97-3.13 6.97-6.97s-3.13-6.97-6.97-6.97-6.97 3.13-6.97 6.97 3.13 6.97 6.97 6.97m0-16.61c-5.31 0-9.64 4.32-9.64 9.64 0 1.98.6 3.87 1.73 5.49-1.88 3.22-3.46 6.9-4.82 11.21-1.96 6.23-2.75 11.63-2.39 16.53.12 1.59.4 3.96 1.55 6.08 1.2 2.24 3.23 3.83 5.43 4.26a1.726 1.726 0 0 0 2.03-1.38 1.73 1.73 0 0 0-1.37-2.03c-1.18-.23-2.31-1.16-3.03-2.49-.63-1.17-.99-2.66-1.14-4.69-.32-4.45.41-9.43 2.24-15.23 1.17-3.72 2.51-6.92 4.07-9.74a9.662 9.662 0 0 0 5.34 1.62c.72 0 1.44-.08 2.15-.25 1.52 2.56 2.63 5.28 3.31 8.11a1.734 1.734 0 0 0 2.1 1.28 1.7 1.7 0 0 0 1.07-.78c.24-.4.32-.86.21-1.31-.73-3.04-1.9-5.96-3.47-8.69a9.654 9.654 0 0 0 4.27-8c0-5.31-4.32-9.64-9.64-9.64Zm0 15.8c-3.4 0-6.16-2.77-6.16-6.16s2.77-6.16 6.16-6.16 6.16 2.77 6.16 6.16-2.77 6.16-6.16 6.16ZM149.96 95.35h-13.09c-2.46 0-4.47-2-4.47-4.46s2-4.47 4.47-4.47h10.02l9.27-9.27c.25-.25.59-.39.94-.39s.69.14.94.39.39.59.39.94-.14.69-.39.94l-9.66 9.66c-.06.06-.13.12-.2.17l-.26-.31.17.37s-.13.07-.14.07c-.04.02-.08.03-.12.04-.06.02-.1.03-.14.04-.09.02-.17.03-.26.03h-10.58c-.99 0-1.8.81-1.8 1.8s.81 1.8 1.8 1.8h12.62l11.11-11.11c.25-.25.59-.39.94-.39s.69.14.94.39.39.59.39.94-.14.69-.39.94l-11.5 11.5c-.25.25-.59.39-.94.39h-.08Z"/><path class="cls-6" d="M157.11 77.16c.24 0 .48.09.66.27.36.36.36.95 0 1.31l-9.66 9.66s-.09.08-.14.12l-.06.03c-.03.02-.06.04-.1.05l-.09.03c-.03 0-.05.02-.08.02-.06.01-.12.02-.18.02h-10.58a2.21 2.21 0 0 0 0 4.42h12.79l11.23-11.23c.18-.18.42-.27.66-.27s.48.09.66.27c.36.36.36.95 0 1.31l-11.5 11.5a.93.93 0 0 1-.66.27h-13.17c-2.24 0-4.07-1.82-4.07-4.07s1.82-4.07 4.07-4.07h10.19l9.39-9.39a.93.93 0 0 1 .66-.27m0-.81c-.46 0-.9.18-1.23.51l-9.16 9.15h-9.86c-2.69 0-4.87 2.19-4.87 4.87s2.19 4.87 4.87 4.87h13.17c.46 0 .9-.18 1.23-.51l11.5-11.5c.68-.68.68-1.78 0-2.46-.33-.33-.76-.51-1.23-.51s-.9.18-1.23.51l-10.99 10.99h-12.45c-.77 0-1.4-.63-1.4-1.4s.63-1.4 1.4-1.4h10.58c.11 0 .23-.01.34-.03.05-.01.1-.02.15-.04.06-.02.12-.03.17-.05.06-.03.12-.06.17-.09.05-.02.09-.05.13-.08.09-.06.18-.14.27-.22l9.66-9.66c.68-.68.68-1.78 0-2.46-.33-.33-.76-.51-1.23-.51Z"/><path class="cls-6" d="M164.21 106.84c-.64 0-1.19-.45-1.31-1.08a1.33 1.33 0 0 1 1.05-1.56c1.3-.25 2.54-1.26 3.31-2.7.66-1.22 1.03-2.76 1.19-4.85.33-4.5-.41-9.53-2.26-15.38-1.24-3.92-2.65-7.27-4.32-10.2a9.224 9.224 0 0 1-5.48 1.8c-.79 0-1.57-.1-2.34-.31-1.62 2.67-2.8 5.52-3.51 8.48-.15.6-.68 1.02-1.29 1.02-.11 0-.22-.01-.32-.04-.71-.17-1.15-.89-.98-1.61.76-3.13 1.97-6.13 3.62-8.92a9.255 9.255 0 0 1-4.41-7.87c0-5.09 4.14-9.23 9.23-9.23s9.23 4.14 9.23 9.23c0 1.99-.62 3.87-1.81 5.47 1.92 3.25 3.53 6.97 4.91 11.36 1.95 6.18 2.73 11.54 2.37 16.38-.11 1.56-.39 3.86-1.5 5.92-1.15 2.13-3.07 3.65-5.15 4.05-.08.02-.17.02-.26.02Zm-7.81-49.77c-3.62 0-6.57 2.95-6.57 6.57s2.95 6.57 6.57 6.57 6.57-2.95 6.57-6.57-2.95-6.57-6.57-6.57Z"/><path class="cls-6" d="M156.39 54.8c4.87 0 8.83 3.96 8.83 8.83 0 2.05-.71 3.94-1.89 5.44 1.96 3.27 3.6 7.03 5.02 11.51 1.93 6.13 2.7 11.44 2.36 16.23-.11 1.52-.38 3.77-1.45 5.76-1.09 2.03-2.91 3.47-4.87 3.85a.922.922 0 0 1-1.09-.73c-.1-.5.23-.99.73-1.09 1.42-.28 2.76-1.36 3.59-2.9.69-1.28 1.08-2.87 1.23-5.01.33-4.55-.41-9.63-2.27-15.53-1.31-4.14-2.81-7.64-4.59-10.69-1.52 1.25-3.47 2-5.59 2-.88 0-1.72-.13-2.52-.37-1.7 2.74-2.96 5.71-3.72 8.85-.1.43-.48.71-.9.71-.07 0-.15 0-.22-.03a.93.93 0 0 1-.69-1.12c.78-3.24 2.06-6.31 3.78-9.15-2.72-1.51-4.56-4.4-4.56-7.72 0-4.87 3.96-8.83 8.83-8.83m0 15.8c3.84 0 6.97-3.13 6.97-6.97s-3.13-6.97-6.97-6.97-6.97 3.13-6.97 6.97 3.13 6.97 6.97 6.97m0-16.61c-5.31 0-9.64 4.32-9.64 9.64 0 3.22 1.62 6.21 4.27 8a33.115 33.115 0 0 0-3.47 8.69c-.11.45-.04.92.21 1.31.24.4.62.67 1.08.78a1.743 1.743 0 0 0 2.1-1.28c.68-2.83 1.8-5.55 3.31-8.11.71.16 1.43.25 2.15.25 1.9 0 3.77-.57 5.34-1.62 1.56 2.82 2.89 6.01 4.07 9.74 1.83 5.8 2.56 10.79 2.24 15.23-.15 2.03-.51 3.52-1.14 4.69-.72 1.33-1.85 2.26-3.03 2.49-.94.18-1.56 1.1-1.37 2.04a1.744 1.744 0 0 0 2.03 1.38c2.19-.43 4.22-2.02 5.42-4.26 1.14-2.12 1.43-4.49 1.55-6.08.35-4.9-.43-10.3-2.39-16.53-1.36-4.32-2.94-7.99-4.82-11.21a9.535 9.535 0 0 0 1.73-5.49c0-5.31-4.32-9.64-9.64-9.64Zm0 15.8c-3.4 0-6.16-2.77-6.16-6.16s2.77-6.16 6.16-6.16 6.16 2.77 6.16 6.16-2.77 6.16-6.16 6.16ZM116.81 51.01c-4.72 0-8.55-3.84-8.55-8.55s3.84-8.55 8.55-8.55 8.55 3.84 8.55 8.55-3.84 8.55-8.55 8.55Zm0-14.41c-3.23 0-5.85 2.63-5.85 5.85s2.63 5.85 5.85 5.85 5.85-2.62 5.85-5.85-2.63-5.85-5.85-5.85Z"/><path class="cls-6" d="M116.81 34.31c4.49 0 8.15 3.66 8.15 8.15s-3.66 8.15-8.15 8.15-8.15-3.66-8.15-8.15 3.66-8.15 8.15-8.15m0 14.41c3.45 0 6.26-2.81 6.26-6.26s-2.81-6.26-6.26-6.26-6.26 2.81-6.26 6.26 2.81 6.26 6.26 6.26m0-15.21c-4.94 0-8.96 4.02-8.96 8.96s4.02 8.96 8.96 8.96 8.96-4.02 8.96-8.96-4.02-8.96-8.96-8.96Zm0 14.41a5.45 5.45 0 1 1 0-10.9 5.45 5.45 0 0 1 0 10.9ZM129.12 68.99c-.74 0-1.35-.61-1.35-1.35v-5.17c0-4.09-4.12-7.42-9.17-7.42h-3.58c-5.06 0-9.17 3.33-9.17 7.42v5.17c0 .75-.61 1.35-1.35 1.35s-1.35-.61-1.35-1.35v-5.17c0-5.58 5.33-10.12 11.87-10.12h3.58c6.55 0 11.87 4.54 11.87 10.12v5.17c0 .75-.61 1.35-1.35 1.35Z"/><path class="cls-6" d="M118.6 52.75c6.32 0 11.47 4.36 11.47 9.72v5.17c0 .52-.42.95-.95.95s-.95-.42-.95-.95v-5.17c0-4.31-4.3-7.82-9.58-7.82h-3.58c-5.28 0-9.58 3.51-9.58 7.82v5.17c0 .52-.42.95-.95.95s-.95-.42-.95-.95v-5.17c0-5.36 5.15-9.72 11.47-9.72h3.58m0-.81H115c-6.77 0-12.28 4.72-12.28 10.52v5.17c0 .97.79 1.75 1.75 1.75s1.75-.79 1.75-1.75v-5.17c0-3.87 3.93-7.02 8.77-7.02h3.58c4.84 0 8.77 3.15 8.77 7.02v5.17c0 .97.79 1.75 1.75 1.75s1.75-.79 1.75-1.75v-5.17c0-5.8-5.51-10.52-12.28-10.52ZM76.36 109.9c-1.81 0-3.32-1.25-3.67-3.04-.19-.95.03-1.95.61-2.82l5.65-8.47a.48.48 0 0 1 .36-.19h2.2c.15 0 .31.1.38.23s.06.32-.02.45l-6.37 9.55c-.21.31-.23.67-.08 1.01.14.31.66.6 1.05.6h80.44c.41 0 .76-.23.94-.6.15-.32.1-.73-.12-1.07l-6.32-9.49a.478.478 0 0 1-.02-.45c.07-.13.24-.23.38-.23h2.19c.13 0 .29.08.36.19l5.65 8.47c.58.87.8 1.88.61 2.82-.35 1.79-1.87 3.04-3.67 3.04H76.36Z"/><path class="cls-6" d="M153.97 95.77s.02 0 .03.01l5.65 8.47c.49.74.72 1.65.55 2.52a3.34 3.34 0 0 1-3.28 2.72H76.36c-1.56 0-2.95-1.09-3.28-2.72-.17-.87.06-1.78.55-2.52l5.65-8.47s.02-.01.03-.01h2.19s.04.03.03.05l-6.37 9.55c-.28.43-.32.94-.11 1.4.22.47.89.83 1.42.83h80.44c.57 0 1.06-.31 1.3-.83.22-.47.14-1.03-.15-1.46l-6.32-9.49s0-.05.03-.05h2.19m0-.81h-2.19c-.3 0-.6.18-.74.44a.83.83 0 0 0 .04.86l6.32 9.48c.14.22.18.48.09.67-.11.23-.32.37-.57.37H76.47c-.26 0-.62-.21-.69-.37-.1-.2-.08-.42.05-.61l6.37-9.55c.16-.25.18-.6.04-.86a.846.846 0 0 0-.74-.44h-2.19c-.27 0-.55.15-.7.38l-5.64 8.47c-.63.95-.88 2.09-.67 3.13.39 1.98 2.07 3.37 4.07 3.37h80.56c2 0 3.68-1.39 4.07-3.37.21-1.04-.04-2.18-.67-3.13l-5.65-8.47a.88.88 0 0 0-.7-.37ZM144.29 85.05c-.13 0-.26-.07-.34-.18l-8.57-12.85a1.02 1.02 0 0 0-.86-.46H98.73c-.35 0-.67.17-.86.46L89.3 84.87c-.08.11-.2.18-.34.18h-2.28c-.15 0-.29-.08-.36-.21s-.06-.29.02-.41l9.27-13.9c.7-1.04 1.86-1.66 3.11-1.66h35.79c1.25 0 2.41.62 3.11 1.66l9.27 13.9c.08.12.09.28.02.41s-.21.21-.36.21h-2.28Z"/><path class="cls-6" d="M134.53 69.27c1.12 0 2.15.55 2.77 1.48l9.27 13.9h-2.28l-8.57-12.85c-.27-.4-.71-.64-1.19-.64H98.74c-.48 0-.93.24-1.19.64l-8.57 12.85H86.7l9.27-13.9c.62-.93 1.65-1.48 2.77-1.48h35.79m0-.81H98.74c-1.39 0-2.67.69-3.44 1.84l-9.27 13.9a.8.8 0 0 0-.04.83c.14.26.41.43.71.43h2.28c.27 0 .52-.14.67-.36l8.57-12.85c.12-.18.31-.28.52-.28h35.79c.21 0 .41.1.52.28l8.57 12.85c.15.22.4.36.67.36h2.28c.3 0 .57-.16.71-.43.14-.26.12-.58-.04-.83l-9.27-13.9a4.141 4.141 0 0 0-3.44-1.84Z"/><path id="_スライス_" data-name="&amp;lt;スライス&amp;gt;" style="fill:none" d="M0 .24h200v115H0z"/></g></svg>