<svg id="_レイヤー_2" data-name="レイヤー 2" xmlns="http://www.w3.org/2000/svg" viewBox="0 0 200 118.71"><defs><style>.cls-2,.cls-4{fill:none}.cls-5{fill:#0af}.cls-6{fill:#fff}.cls-2,.cls-4{stroke:#0082e9;stroke-width:4px;stroke-linecap:round;stroke-linejoin:round}.cls-4{stroke:#fff;stroke-width:3px}</style></defs><g id="Content"><path class="cls-2" d="M165.5 90.26h-136v-87h136v87zM165.5 17.4h-136"/><circle class="cls-4" cx="135" cy="9.76" r="2.5"/><circle class="cls-5" cx="146" cy="9.76" r="2.5"/><circle class="cls-5" cx="157" cy="9.76" r="2.5"/><path class="cls-2" d="M47.5 34.26h100v25h-100zM47.5 65.26h19v16h-19z"/><path style="stroke:#0af;stroke-linecap:round;stroke-linejoin:round;stroke-width:4px;fill:none" d="M74.5 65.26h19v16h-19z"/><path class="cls-4" d="M101.5 65.26h19v16h-19z"/><path class="cls-5" d="M126.35 100.22c-1.1 0-2-.9-2-2v-5.81c0-1.1.9-2 2-2h34.56l.39-1.52h-35.24c-2.35 0-4.44-1.57-5.09-3.83l-9.46-32.84c-.46-1.59-.14-3.33.86-4.65a5.324 5.324 0 0 1 4.23-2.11h55.91l2.88-11.14c.6-2.34 2.71-3.97 5.13-3.97h12.49c1.1 0 2 .9 2 2v5.81c0 1.1-.9 2-2 2h-8.99l-14.47 56.09a5.287 5.287 0 0 1-5.13 3.97h-38.06Zm37.49-21.15 1.84-7.14h-5.55v7.14h3.71Zm-13.52 0v-7.14h-8.4v7.14h8.4Zm-17.28 0v-7.14h-5.63l2.06 7.14h3.57Zm35.18-16.95 1.77-6.85h-9.85v6.85h8.08Zm-17.9 0v-6.85h-8.4v6.85h8.4Zm-17.28 0v-6.85h-10.43l1.97 6.85h8.46Z"/><path class="cls-6" d="M193 32.34v5.81h-10.54L167.6 95.74a3.294 3.294 0 0 1-3.19 2.47h-38.06V92.4h36.11l1.42-5.52h-37.82a3.3 3.3 0 0 1-3.17-2.38l-9.46-32.84a3.282 3.282 0 0 1 3.16-4.2h57.46l3.26-12.64a3.294 3.294 0 0 1 3.19-2.47h12.49m-34.87 31.77h11.63l2.8-10.85h-14.43v10.85m-18.21 0h12.4V53.27h-12.4v10.85m-16.84 0h11.96V53.27h-15.09l3.13 10.85m35.05 16.95h7.26l2.87-11.14h-10.14v11.14m-18.21 0h12.4V69.93h-12.4v11.14m-11.96 0h7.08V69.93h-10.29l3.21 11.14M193 28.34h-12.49c-3.33 0-6.23 2.25-7.06 5.47l-2.49 9.64H116.6c-2.28 0-4.46 1.09-5.83 2.91a7.343 7.343 0 0 0-1.18 6.41l9.46 32.84c.6 2.07 2.08 3.73 3.96 4.6-.42.63-.66 1.39-.66 2.2v5.81c0 2.21 1.79 4 4 4h38.06c3.33 0 6.23-2.25 7.06-5.47l14.09-54.59H193c2.21 0 4-1.79 4-4v-5.81c0-2.21-1.79-4-4-4Zm-30.87 28.92h5.27l-.74 2.85h-4.54v-2.85Zm-18.21 0h4.4v2.85h-4.4v-2.85Zm-18.65 0h5.77v2.85h-4.95l-.82-2.85Zm36.87 16.66h.97l-.81 3.14h-.16v-3.14Zm-18.21 0h4.4v3.14h-4.4v-3.14Zm-13.85 0h.97v3.14h-.07l-.9-3.14Z"/><path class="cls-5" d="M131.9 116.38c-4.35 0-7.89-3.54-7.89-7.89s3.54-7.89 7.89-7.89 7.89 3.54 7.89 7.89-3.54 7.89-7.89 7.89Z"/><path class="cls-6" d="M131.9 102.59c3.26 0 5.89 2.64 5.89 5.89s-2.64 5.89-5.89 5.89-5.89-2.64-5.89-5.89 2.64-5.89 5.89-5.89m0-4c-5.46 0-9.89 4.44-9.89 9.89s4.44 9.89 9.89 9.89 9.89-4.44 9.89-9.89-4.44-9.89-9.89-9.89Z"/><path class="cls-5" d="M160.18 116.71c-4.35 0-7.89-3.54-7.89-7.89s3.54-7.89 7.89-7.89 7.89 3.54 7.89 7.89-3.54 7.89-7.89 7.89Z"/><path class="cls-6" d="M160.18 102.92c3.25 0 5.89 2.64 5.89 5.89s-2.64 5.89-5.89 5.89-5.89-2.64-5.89-5.89 2.64-5.89 5.89-5.89m0-4c-5.46 0-9.89 4.44-9.89 9.89s4.44 9.89 9.89 9.89 9.89-4.44 9.89-9.89-4.44-9.89-9.89-9.89Z"/><path id="_スライス_" data-name="&amp;lt;スライス&amp;gt;" style="fill:none" d="M0 0h200v115H0z"/></g></svg>