<svg id="_レイヤー_2" data-name="レイヤー 2" xmlns="http://www.w3.org/2000/svg" viewBox="0 0 58.25 51.07"><defs><style>.cls-1{fill:#0082e9}.cls-3{fill:#113e8b}</style></defs><g id="Header"><path class="cls-1" d="m31.12 19.95 8.26 28.01c.46 1.55-.71 3.11-2.32 3.11h-7.99.11-7.99a2.42 2.42 0 0 1-2.32-3.11l8.26-28.01"/><rect class="cls-1" width="58.25" height="39.9" rx="3.99" ry="3.99"/><rect x="12.37" y="-5.98" width="33.51" height="51.87" rx="3.62" ry="3.62" transform="rotate(-90 29.125 19.945)" style="fill:#fff"/><path class="cls-3" d="m9.65 16.63 4.1-6.23h-3.7V8.51h6.51v1.37l-4.1 6.22h4.14v1.92H9.65v-1.38ZM17.84 13.2c0-3.12 1.76-4.88 4.36-4.88s4.35 1.77 4.35 4.88-1.76 4.98-4.35 4.98-4.36-1.86-4.36-4.98Zm6.39 0c0-1.84-.78-2.92-2.03-2.92s-2.02 1.09-2.02 2.92.77 3.01 2.02 3.01 2.03-1.16 2.03-3.01ZM28.01 13.2c0-3.12 1.76-4.88 4.36-4.88s4.35 1.77 4.35 4.88-1.76 4.98-4.35 4.98-4.36-1.86-4.36-4.98Zm6.39 0c0-1.84-.78-2.92-2.03-2.92s-2.02 1.09-2.02 2.92.77 3.01 2.02 3.01 2.03-1.16 2.03-3.01ZM38.6 8.5h2.46l1.51 4.1c.19.55.34 1.15.52 1.74h.06c.19-.59.34-1.19.52-1.74l1.46-4.1h2.48V18h-2.08v-3.26c0-.94.18-2.36.29-3.29h-.05l-.79 2.27-1.28 3.47h-1.25l-1.29-3.47-.77-2.27h-.05c.12.93.29 2.35.29 3.29V18h-2.04V8.5ZM21.89 23.94c-.23 1.32-.56 2.5-1 3.58.52.72.98 1.4 1.26 2.01l-1.48 1.26c-.18-.42-.43-.89-.75-1.4a8.783 8.783 0 0 1-2.45 2.52c-.23-.37-.87-1.12-1.24-1.46 1.11-.64 1.95-1.55 2.58-2.68-.65-.88-1.37-1.76-2.04-2.52l1.3-1.06c.49.52 1.01 1.11 1.52 1.71.22-.69.38-1.43.5-2.21l1.8.26Zm6.6.41h-1.28v5.39c0 1-.17 1.52-.7 1.84-.55.32-1.37.4-2.43.4-.05-.55-.32-1.44-.58-2.01.66.04 1.34.04 1.57.04.22 0 .29-.06.29-.28v-5.38h-3.04v-.89H16.6v-1.71h2.12v-1.88h1.78v1.88h2.26v.83h2.61v-2.72h1.84v2.72h1.28v1.77Zm-4.97.83c.59.82 1.2 1.89 1.41 2.66l-1.6.82c-.18-.74-.73-1.89-1.29-2.75l1.48-.73ZM32.2 24.44c0 2.13-.22 5.47-1.41 7.51-.34-.31-1.17-.86-1.61-1.05 1.07-1.84 1.15-4.59 1.15-6.46v-3.18h4.5v-1.41h1.94v1.41h4.5v1.76h-5.06c.96.47 2.12 1.12 2.75 1.65l-1.34 1.38c-.63-.6-2.02-1.47-3.08-2l1.03-1.02H32.2v1.42Zm-.37 5.77c.49-.98.72-2.41.82-3.88l1.67.36c-.12 1.52-.31 3.21-.84 4.25l-1.65-.73Zm7.97.7c-.06-.5-.22-1.12-.43-1.79-.17 2.03-.62 2.63-1.84 2.63h-1.16c-1.49 0-1.85-.55-1.85-2.17V25.4h1.84v4.16c0 .49.05.54.33.54h.66c.31 0 .37-.29.42-1.98.34.28 1.03.56 1.51.7-.26-.75-.59-1.56-.93-2.25l1.66-.64c.72 1.34 1.43 3.04 1.62 4.23l-1.83.74Z"/></g></svg>